<svg xmlns="http://www.w3.org/2000/svg" xmlns:xlink="http://www.w3.org/1999/xlink" width="1095" zoomAndPan="magnify" viewBox="0 0 821.25 603.749982" height="805" preserveAspectRatio="xMidYMid meet" version="1.0"><defs><clipPath id="4f7794350e"><path d="M 0 0.152344 L 820.5 0.152344 L 820.5 603.351562 L 0 603.351562 Z M 0 0.152344 " clip-rule="nonzero"/></clipPath><clipPath id="b636e35467"><path d="M 214 219 L 724.585938 219 L 724.585938 563.957031 L 214 563.957031 Z M 214 219 " clip-rule="nonzero"/></clipPath></defs><g clip-path="url(#4f7794350e)"><path fill="#ffffff" d="M 0 0.152344 L 821.25 0.152344 L 821.25 611.59375 L 0 611.59375 Z M 0 0.152344 " fill-opacity="1" fill-rule="nonzero"/><path fill="#ffffff" d="M 0 0.152344 L 820.5 0.152344 L 820.5 603.351562 L 0 603.351562 Z M 0 0.152344 " fill-opacity="1" fill-rule="nonzero"/><path fill="#ffffff" d="M 0 0.152344 L 820.5 0.152344 L 820.5 603.351562 L 0 603.351562 Z M 0 0.152344 " fill-opacity="1" fill-rule="nonzero"/></g><g clip-path="url(#b636e35467)"><path fill="#b40c26" d="M 485.152344 334.445312 C 485.460938 335.683594 485.566406 336.921875 485.824219 338.210938 C 485.71875 336.921875 485.460938 335.683594 485.152344 334.445312 Z M 488.613281 243.125 C 491.507812 243.125 494.347656 243.277344 497.085938 243.742188 C 510.984375 245.808594 524.058594 250.765625 536.511719 257.886719 C 561.621094 272.238281 584.5625 295.054688 606.78125 317.460938 C 626.257812 337.023438 645.015625 355.96875 665.992188 370.011719 C 670.796875 373.210938 677.410156 374.605469 681.132812 374.65625 L 701.023438 376.15625 L 691.359375 519.25 C 631.992188 531.28125 589.210938 542.53125 549.015625 540.828125 C 507.214844 539.125 465.671875 524.050781 404.496094 479.191406 C 367.191406 451.832031 325.597656 421.167969 264.007812 400.160156 C 249.023438 395.046875 241.84375 388.390625 238.898438 382.710938 C 236.261719 377.652344 236.832031 371.457031 239.3125 366.964844 C 244.890625 356.796875 260.496094 349 276.304688 357.984375 C 312.164062 378.269531 347.917969 398.558594 383.726562 418.792969 C 410.128906 433.714844 441.335938 426.382812 460.867188 409.246094 C 480.140625 392.363281 491.660156 365.625 485.824219 338.210938 C 485.925781 339.191406 485.976562 340.226562 485.976562 341.257812 L 485.152344 334.445312 L 461.589844 246.480469 C 470.839844 244.621094 480.035156 243.074219 488.613281 243.125 Z M 487.375 219.792969 C 473.992188 219.273438 459.886719 220.925781 445.261719 225.367188 C 438.597656 227.429688 434.722656 234.398438 436.480469 241.164062 L 463.039062 340.328125 C 463.039062 340.378906 463.039062 340.433594 463.039062 340.433594 C 468.203125 359.480469 460.09375 379.457031 445.78125 391.949219 C 431.46875 404.546875 413.074219 409.140625 395.042969 398.921875 C 359.234375 378.683594 323.429688 358.34375 287.621094 338.109375 C 261.0625 323.085938 231.042969 334.546875 219.316406 356.074219 C 213.425781 366.8125 212.238281 380.851562 218.644531 393.242188 C 225.050781 405.632812 237.863281 415.386719 256.570312 421.738281 C 314.746094 441.613281 353.550781 470.210938 390.90625 497.570312 C 454.203125 543.976562 501.117188 561.839844 548.082031 563.75 C 595.050781 565.710938 640.210938 552.652344 703.246094 540.261719 C 709.03125 539.074219 713.320312 534.222656 713.683594 528.335938 L 724.53125 367.84375 C 725.050781 360.667969 719.726562 354.421875 712.546875 353.90625 C 712.492188 353.90625 712.441406 353.90625 712.390625 353.90625 L 682.113281 351.839844 C 681.90625 351.789062 681.648438 351.789062 681.390625 351.789062 C 680.304688 351.789062 679.476562 351.53125 678.703125 351.066406 C 660.566406 338.882812 642.378906 320.816406 623.054688 301.355469 C 600.835938 279 576.8125 254.53125 547.878906 238.015625 C 533.410156 229.804688 517.652344 223.609375 500.445312 221.03125 C 496.15625 220.410156 491.816406 219.996094 487.375 219.792969 " fill-opacity="1" fill-rule="nonzero"/></g><path fill="#b40c26" d="M 319.8125 110.558594 C 318.054688 110.351562 316.195312 110.402344 314.386719 110.921875 C 307.050781 112.828125 302.761719 120.261719 304.722656 127.542969 L 324.101562 200.742188 C 326.0625 208.074219 333.453125 212.359375 340.789062 210.449219 C 348.074219 208.484375 352.414062 201.050781 350.449219 193.773438 L 331.023438 120.574219 C 329.578125 115.101562 325.082031 111.332031 319.8125 110.558594 Z M 363.160156 99.097656 C 361.40625 98.839844 359.542969 98.945312 357.734375 99.410156 C 350.398438 101.371094 346.109375 108.75 348.023438 116.082031 L 375.921875 221.289062 C 377.886719 228.566406 385.328125 232.902344 392.613281 230.941406 C 399.949219 229.03125 404.289062 221.597656 402.328125 214.265625 L 374.425781 109.113281 C 372.980469 103.589844 368.433594 99.820312 363.160156 99.097656 Z M 377.992188 41.386719 C 375.71875 41.539062 373.445312 41.902344 371.171875 42.519531 L 168.113281 96.257812 C 149.769531 101.113281 138.867188 119.800781 143.722656 138.175781 L 244.066406 516.308594 C 248.921875 534.632812 267.625 545.476562 285.96875 540.621094 L 436.375 500.820312 C 428.523438 495.867188 420.359375 490.394531 411.832031 484.355469 L 350.863281 500.511719 C 350.8125 499.53125 350.96875 498.601562 350.710938 497.671875 L 333.140625 431.441406 C 318.210938 422.976562 301.984375 414.871094 283.902344 407.59375 L 310.613281 508.253906 C 310.871094 509.238281 311.441406 509.960938 311.855469 510.785156 L 280.234375 519.148438 C 273.414062 520.953125 267.367188 517.496094 265.507812 510.628906 L 165.21875 132.5 C 163.410156 125.683594 166.976562 119.539062 173.742188 117.734375 L 204.847656 109.527344 L 270.054688 355.300781 C 272.121094 355.917969 274.238281 356.796875 276.304688 357.984375 C 290.980469 366.292969 305.601562 374.554688 320.226562 382.867188 L 244.890625 98.890625 L 376.855469 63.945312 C 383.621094 62.136719 389.71875 65.75 391.578125 72.566406 L 476.058594 391.074219 C 484.480469 377.289062 488.714844 360.925781 486.597656 343.941406 L 413.074219 66.835938 C 408.835938 50.78125 393.957031 40.457031 377.992188 41.386719 " fill-opacity="1" fill-rule="nonzero"/></svg>