<svg xmlns="http://www.w3.org/2000/svg" xmlns:xlink="http://www.w3.org/1999/xlink" width="1095" zoomAndPan="magnify" viewBox="0 0 821.25 603.749982" height="805" preserveAspectRatio="xMidYMid meet" version="1.0"><defs><clipPath id="d7c8c2e24a"><path d="M 0 0.152344 L 820.5 0.152344 L 820.5 603.351562 L 0 603.351562 Z M 0 0.152344 " clip-rule="nonzero"/></clipPath><clipPath id="af7b38e48c"><path d="M 384 223 L 696.035156 223 L 696.035156 535.957031 L 384 535.957031 Z M 384 223 " clip-rule="nonzero"/></clipPath><clipPath id="38aeaa9b83"><path d="M 124.308594 67.632812 L 696.035156 67.632812 L 696.035156 484 L 124.308594 484 Z M 124.308594 67.632812 " clip-rule="nonzero"/></clipPath></defs><g clip-path="url(#d7c8c2e24a)"><path fill="#ffffff" d="M 0 0.152344 L 821.25 0.152344 L 821.25 611.59375 L 0 611.59375 Z M 0 0.152344 " fill-opacity="1" fill-rule="nonzero"/><path fill="#ffffff" d="M 0 0.152344 L 820.5 0.152344 L 820.5 603.351562 L 0 603.351562 Z M 0 0.152344 " fill-opacity="1" fill-rule="nonzero"/><path fill="#ffffff" d="M 0 0.152344 L 820.5 0.152344 L 820.5 603.351562 L 0 603.351562 Z M 0 0.152344 " fill-opacity="1" fill-rule="nonzero"/></g><g clip-path="url(#af7b38e48c)"><path fill="#fe9603" d="M 540.109375 275.796875 C 482.699219 275.796875 436.160156 322.359375 436.160156 379.792969 C 436.160156 437.230469 482.699219 483.792969 540.109375 483.792969 C 597.519531 483.792969 644.058594 437.230469 644.058594 379.792969 C 644.058594 322.359375 597.519531 275.796875 540.109375 275.796875 Z M 384.183594 379.792969 C 384.183594 293.640625 453.992188 223.796875 540.109375 223.796875 C 626.222656 223.796875 696.035156 293.640625 696.035156 379.792969 C 696.035156 465.949219 626.222656 535.792969 540.109375 535.792969 C 453.992188 535.792969 384.183594 465.949219 384.183594 379.792969 Z M 384.183594 379.792969 " fill-opacity="1" fill-rule="evenodd"/></g><path fill="#fe9603" d="M 527.9375 388.527344 L 577.445312 319.183594 L 619.738281 349.40625 L 554.769531 440.40625 C 550.703125 446.101562 544.511719 449.917969 537.597656 450.988281 C 530.679688 452.058594 523.628906 450.292969 518.03125 446.09375 L 466.054688 407.09375 L 497.238281 365.496094 Z M 527.9375 388.527344 " fill-opacity="1" fill-rule="evenodd"/><g clip-path="url(#38aeaa9b83)"><path fill="#b40c26" d="M 124.308594 119.796875 C 124.308594 91.078125 147.578125 67.796875 176.28125 67.796875 L 644.058594 67.796875 C 672.765625 67.796875 696.035156 91.078125 696.035156 119.796875 L 696.035156 223.796875 L 644.058594 223.796875 L 644.058594 119.796875 L 176.28125 119.796875 L 176.28125 431.792969 L 358.195312 431.792969 L 358.195312 483.792969 L 176.28125 483.792969 C 147.578125 483.792969 124.308594 460.511719 124.308594 431.792969 Z M 124.308594 119.796875 " fill-opacity="1" fill-rule="evenodd"/></g><path fill="#b40c26" d="M 150.292969 158.796875 L 670.046875 158.796875 L 670.046875 210.796875 L 150.292969 210.796875 Z M 150.292969 158.796875 " fill-opacity="1" fill-rule="evenodd"/><path fill="#b40c26" d="M 215.265625 340.792969 L 345.203125 340.792969 L 345.203125 392.792969 L 215.265625 392.792969 Z M 215.265625 340.792969 " fill-opacity="1" fill-rule="evenodd"/></svg>