<svg xmlns="http://www.w3.org/2000/svg" xmlns:xlink="http://www.w3.org/1999/xlink" width="110" zoomAndPan="magnify" viewBox="0 0 82.5 30.000001" height="40" preserveAspectRatio="xMidYMid meet" version="1.0"><defs><filter x="0%" y="0%" width="100%" height="100%" id="id1"><feColorMatrix values="0 0 0 0 1 0 0 0 0 1 0 0 0 0 1 0 0 0 1 0" color-interpolation-filters="sRGB"/></filter><g/><clipPath id="id2"><path d="M 42 0 L 80.925781 0 L 80.925781 27 L 42 27 Z M 42 0 " clip-rule="nonzero"/></clipPath><mask id="id3"><g filter="url(#id1)"><rect x="-8.25" width="99" fill="#000000" y="-3" height="36.000001" fill-opacity="0.4"/></g></mask><clipPath id="id4"><rect x="0" width="39" y="0" height="27"/></clipPath><mask id="id5"><g filter="url(#id1)"><rect x="-8.25" width="99" fill="#000000" y="-3" height="36.000001" fill-opacity="0.4"/></g></mask><clipPath id="id6"><path d="M 0.289062 0.136719 L 38.988281 0.136719 L 38.988281 24.964844 L 0.289062 24.964844 Z M 0.289062 0.136719 " clip-rule="nonzero"/></clipPath><clipPath id="id7"><rect x="0" width="40" y="0" height="26"/></clipPath></defs><g clip-path="url(#id2)"><g mask="url(#id3)"><g transform="matrix(1, 0, 0, 1, 42, 0.000000000000005692)"><g clip-path="url(#id4)"><g fill="#b40c26" fill-opacity="1"><g transform="translate(7.869454, 14.038654)"><g><path d="M 0.71875 -5.0625 C 0.71875 -6.625 1 -7.84375 1.5625 -8.71875 C 2.125 -9.601562 3.0625 -10.046875 4.375 -10.046875 C 5.675781 -10.046875 6.609375 -9.601562 7.171875 -8.71875 C 7.742188 -7.84375 8.03125 -6.625 8.03125 -5.0625 C 8.03125 -3.488281 7.742188 -2.253906 7.171875 -1.359375 C 6.609375 -0.472656 5.675781 -0.03125 4.375 -0.03125 C 3.0625 -0.03125 2.125 -0.472656 1.5625 -1.359375 C 1 -2.253906 0.71875 -3.488281 0.71875 -5.0625 Z M 6.15625 -5.0625 C 6.15625 -5.726562 6.113281 -6.285156 6.03125 -6.734375 C 5.945312 -7.191406 5.773438 -7.566406 5.515625 -7.859375 C 5.253906 -8.148438 4.875 -8.296875 4.375 -8.296875 C 3.863281 -8.296875 3.476562 -8.148438 3.21875 -7.859375 C 2.96875 -7.566406 2.796875 -7.191406 2.703125 -6.734375 C 2.617188 -6.285156 2.578125 -5.726562 2.578125 -5.0625 C 2.578125 -4.375 2.617188 -3.796875 2.703125 -3.328125 C 2.785156 -2.867188 2.957031 -2.492188 3.21875 -2.203125 C 3.476562 -1.921875 3.863281 -1.78125 4.375 -1.78125 C 4.875 -1.78125 5.253906 -1.921875 5.515625 -2.203125 C 5.773438 -2.492188 5.945312 -2.867188 6.03125 -3.328125 C 6.113281 -3.796875 6.15625 -4.375 6.15625 -5.0625 Z M 6.15625 -5.0625 "/></g></g></g><g fill="#b40c26" fill-opacity="1"><g transform="translate(16.610044, 14.038654)"><g><path d="M 0.5 -7.4375 C 0.5 -8.125 0.695312 -8.660156 1.09375 -9.046875 C 1.5 -9.441406 2.019531 -9.640625 2.65625 -9.640625 C 3.28125 -9.640625 3.789062 -9.441406 4.1875 -9.046875 C 4.59375 -8.660156 4.796875 -8.125 4.796875 -7.4375 C 4.796875 -6.75 4.59375 -6.207031 4.1875 -5.8125 C 3.789062 -5.425781 3.28125 -5.234375 2.65625 -5.234375 C 2.019531 -5.234375 1.5 -5.425781 1.09375 -5.8125 C 0.695312 -6.207031 0.5 -6.75 0.5 -7.4375 Z M 9.1875 -9.46875 L 3.875 0 L 2.03125 0 L 7.328125 -9.46875 Z M 2.640625 -8.5 C 2.140625 -8.5 1.890625 -8.144531 1.890625 -7.4375 C 1.890625 -6.726562 2.140625 -6.375 2.640625 -6.375 C 2.878906 -6.375 3.066406 -6.460938 3.203125 -6.640625 C 3.335938 -6.816406 3.40625 -7.082031 3.40625 -7.4375 C 3.40625 -8.144531 3.148438 -8.5 2.640625 -8.5 Z M 6.4375 -2.046875 C 6.4375 -2.734375 6.632812 -3.269531 7.03125 -3.65625 C 7.4375 -4.039062 7.957031 -4.234375 8.59375 -4.234375 C 9.226562 -4.234375 9.738281 -4.039062 10.125 -3.65625 C 10.519531 -3.269531 10.71875 -2.734375 10.71875 -2.046875 C 10.71875 -1.347656 10.519531 -0.804688 10.125 -0.421875 C 9.738281 -0.0351562 9.226562 0.15625 8.59375 0.15625 C 7.945312 0.15625 7.425781 -0.0351562 7.03125 -0.421875 C 6.632812 -0.804688 6.4375 -1.347656 6.4375 -2.046875 Z M 8.578125 -3.09375 C 8.066406 -3.09375 7.8125 -2.742188 7.8125 -2.046875 C 7.8125 -1.328125 8.066406 -0.96875 8.578125 -0.96875 C 9.085938 -0.96875 9.34375 -1.328125 9.34375 -2.046875 C 9.34375 -2.742188 9.085938 -3.09375 8.578125 -3.09375 Z M 8.578125 -3.09375 "/></g></g></g><g fill="#b40c26" fill-opacity="1"><g transform="translate(27.816267, 14.038654)"><g/></g></g><g fill="#b40c26" fill-opacity="1"><g transform="translate(1.051141, 23.870259)"><g><path d="M 3.609375 0 L 1.890625 -2.140625 L 1.890625 0 L 0.625 0 L 0.625 -6.71875 L 1.890625 -6.71875 L 1.890625 -2.890625 L 3.578125 -5.03125 L 5.234375 -5.03125 L 3.015625 -2.5 L 5.25 0 Z M 3.609375 0 "/></g></g></g><g fill="#b40c26" fill-opacity="1"><g transform="translate(6.351175, 23.870259)"><g><path d="M 0.296875 -2.53125 C 0.296875 -3.039062 0.394531 -3.488281 0.59375 -3.875 C 0.800781 -4.269531 1.078125 -4.570312 1.421875 -4.78125 C 1.773438 -5 2.164062 -5.109375 2.59375 -5.109375 C 2.96875 -5.109375 3.296875 -5.03125 3.578125 -4.875 C 3.859375 -4.726562 4.082031 -4.539062 4.25 -4.3125 L 4.25 -5.03125 L 5.53125 -5.03125 L 5.53125 0 L 4.25 0 L 4.25 -0.734375 C 4.09375 -0.492188 3.867188 -0.296875 3.578125 -0.140625 C 3.296875 0.00390625 2.96875 0.078125 2.59375 0.078125 C 2.164062 0.078125 1.773438 -0.03125 1.421875 -0.25 C 1.078125 -0.46875 0.800781 -0.773438 0.59375 -1.171875 C 0.394531 -1.566406 0.296875 -2.019531 0.296875 -2.53125 Z M 4.25 -2.515625 C 4.25 -2.828125 4.1875 -3.09375 4.0625 -3.3125 C 3.945312 -3.53125 3.785156 -3.695312 3.578125 -3.8125 C 3.378906 -3.9375 3.160156 -4 2.921875 -4 C 2.679688 -4 2.460938 -3.941406 2.265625 -3.828125 C 2.066406 -3.710938 1.90625 -3.539062 1.78125 -3.3125 C 1.65625 -3.09375 1.59375 -2.832031 1.59375 -2.53125 C 1.59375 -2.226562 1.65625 -1.960938 1.78125 -1.734375 C 1.90625 -1.503906 2.066406 -1.328125 2.265625 -1.203125 C 2.472656 -1.085938 2.691406 -1.03125 2.921875 -1.03125 C 3.160156 -1.03125 3.378906 -1.085938 3.578125 -1.203125 C 3.785156 -1.328125 3.945312 -1.5 4.0625 -1.71875 C 4.1875 -1.9375 4.25 -2.203125 4.25 -2.515625 Z M 4.25 -2.515625 "/></g></g></g><g fill="#b40c26" fill-opacity="1"><g transform="translate(12.504295, 23.870259)"><g><path d="M 6.875 -5.109375 C 7.488281 -5.109375 7.984375 -4.914062 8.359375 -4.53125 C 8.742188 -4.15625 8.9375 -3.628906 8.9375 -2.953125 L 8.9375 0 L 7.65625 0 L 7.65625 -2.78125 C 7.65625 -3.175781 7.554688 -3.476562 7.359375 -3.6875 C 7.160156 -3.894531 6.890625 -4 6.546875 -4 C 6.203125 -4 5.925781 -3.894531 5.71875 -3.6875 C 5.519531 -3.476562 5.421875 -3.175781 5.421875 -2.78125 L 5.421875 0 L 4.15625 0 L 4.15625 -2.78125 C 4.15625 -3.175781 4.050781 -3.476562 3.84375 -3.6875 C 3.644531 -3.894531 3.375 -4 3.03125 -4 C 2.675781 -4 2.394531 -3.894531 2.1875 -3.6875 C 1.988281 -3.476562 1.890625 -3.175781 1.890625 -2.78125 L 1.890625 0 L 0.625 0 L 0.625 -5.03125 L 1.890625 -5.03125 L 1.890625 -4.421875 C 2.054688 -4.628906 2.265625 -4.796875 2.515625 -4.921875 C 2.773438 -5.046875 3.0625 -5.109375 3.375 -5.109375 C 3.769531 -5.109375 4.117188 -5.023438 4.421875 -4.859375 C 4.734375 -4.691406 4.972656 -4.453125 5.140625 -4.140625 C 5.304688 -4.429688 5.546875 -4.664062 5.859375 -4.84375 C 6.171875 -5.019531 6.507812 -5.109375 6.875 -5.109375 Z M 6.875 -5.109375 "/></g></g></g><g fill="#b40c26" fill-opacity="1"><g transform="translate(22.01531, 23.870259)"><g><path d="M 0.296875 -2.53125 C 0.296875 -3.039062 0.394531 -3.488281 0.59375 -3.875 C 0.800781 -4.269531 1.078125 -4.570312 1.421875 -4.78125 C 1.773438 -5 2.164062 -5.109375 2.59375 -5.109375 C 2.96875 -5.109375 3.296875 -5.03125 3.578125 -4.875 C 3.859375 -4.726562 4.082031 -4.539062 4.25 -4.3125 L 4.25 -5.03125 L 5.53125 -5.03125 L 5.53125 0 L 4.25 0 L 4.25 -0.734375 C 4.09375 -0.492188 3.867188 -0.296875 3.578125 -0.140625 C 3.296875 0.00390625 2.96875 0.078125 2.59375 0.078125 C 2.164062 0.078125 1.773438 -0.03125 1.421875 -0.25 C 1.078125 -0.46875 0.800781 -0.773438 0.59375 -1.171875 C 0.394531 -1.566406 0.296875 -2.019531 0.296875 -2.53125 Z M 4.25 -2.515625 C 4.25 -2.828125 4.1875 -3.09375 4.0625 -3.3125 C 3.945312 -3.53125 3.785156 -3.695312 3.578125 -3.8125 C 3.378906 -3.9375 3.160156 -4 2.921875 -4 C 2.679688 -4 2.460938 -3.941406 2.265625 -3.828125 C 2.066406 -3.710938 1.90625 -3.539062 1.78125 -3.3125 C 1.65625 -3.09375 1.59375 -2.832031 1.59375 -2.53125 C 1.59375 -2.226562 1.65625 -1.960938 1.78125 -1.734375 C 1.90625 -1.503906 2.066406 -1.328125 2.265625 -1.203125 C 2.472656 -1.085938 2.691406 -1.03125 2.921875 -1.03125 C 3.160156 -1.03125 3.378906 -1.085938 3.578125 -1.203125 C 3.785156 -1.328125 3.945312 -1.5 4.0625 -1.71875 C 4.1875 -1.9375 4.25 -2.203125 4.25 -2.515625 Z M 4.25 -2.515625 "/></g></g></g><g fill="#b40c26" fill-opacity="1"><g transform="translate(28.168429, 23.870259)"><g><path d="M 2.109375 -3.984375 L 2.109375 -1.546875 C 2.109375 -1.378906 2.144531 -1.257812 2.21875 -1.1875 C 2.300781 -1.113281 2.441406 -1.078125 2.640625 -1.078125 L 3.234375 -1.078125 L 3.234375 0 L 2.4375 0 C 1.363281 0 0.828125 -0.519531 0.828125 -1.5625 L 0.828125 -3.984375 L 0.234375 -3.984375 L 0.234375 -5.03125 L 0.828125 -5.03125 L 0.828125 -6.265625 L 2.109375 -6.265625 L 2.109375 -5.03125 L 3.234375 -5.03125 L 3.234375 -3.984375 Z M 2.109375 -3.984375 "/></g></g></g><g fill="#b40c26" fill-opacity="1"><g transform="translate(31.689684, 23.870259)"><g><path d="M 0.296875 -2.53125 C 0.296875 -3.039062 0.394531 -3.488281 0.59375 -3.875 C 0.800781 -4.269531 1.078125 -4.570312 1.421875 -4.78125 C 1.773438 -5 2.164062 -5.109375 2.59375 -5.109375 C 2.96875 -5.109375 3.296875 -5.03125 3.578125 -4.875 C 3.859375 -4.726562 4.082031 -4.539062 4.25 -4.3125 L 4.25 -5.03125 L 5.53125 -5.03125 L 5.53125 0 L 4.25 0 L 4.25 -0.734375 C 4.09375 -0.492188 3.867188 -0.296875 3.578125 -0.140625 C 3.296875 0.00390625 2.96875 0.078125 2.59375 0.078125 C 2.164062 0.078125 1.773438 -0.03125 1.421875 -0.25 C 1.078125 -0.46875 0.800781 -0.773438 0.59375 -1.171875 C 0.394531 -1.566406 0.296875 -2.019531 0.296875 -2.53125 Z M 4.25 -2.515625 C 4.25 -2.828125 4.1875 -3.09375 4.0625 -3.3125 C 3.945312 -3.53125 3.785156 -3.695312 3.578125 -3.8125 C 3.378906 -3.9375 3.160156 -4 2.921875 -4 C 2.679688 -4 2.460938 -3.941406 2.265625 -3.828125 C 2.066406 -3.710938 1.90625 -3.539062 1.78125 -3.3125 C 1.65625 -3.09375 1.59375 -2.832031 1.59375 -2.53125 C 1.59375 -2.226562 1.65625 -1.960938 1.78125 -1.734375 C 1.90625 -1.503906 2.066406 -1.328125 2.265625 -1.203125 C 2.472656 -1.085938 2.691406 -1.03125 2.921875 -1.03125 C 3.160156 -1.03125 3.378906 -1.085938 3.578125 -1.203125 C 3.785156 -1.328125 3.945312 -1.5 4.0625 -1.71875 C 4.1875 -1.9375 4.25 -2.203125 4.25 -2.515625 Z M 4.25 -2.515625 "/></g></g></g></g></g></g></g><g mask="url(#id5)"><g transform="matrix(1, 0, 0, 1, 2, 2)"><g clip-path="url(#id7)"><g clip-path="url(#id6)"><path fill="#b40c26" d="M 35.890625 23.410156 L 3.382812 23.410156 C 2.527344 23.410156 1.835938 22.714844 1.835938 21.859375 L 1.835938 11.144531 L 37.441406 11.144531 L 37.441406 21.859375 C 37.441406 22.714844 36.746094 23.410156 35.890625 23.410156 Z M 37.441406 9.59375 L 1.835938 9.59375 L 1.835938 5.929688 L 37.441406 5.929688 Z M 3.382812 1.6875 L 35.890625 1.6875 C 36.746094 1.6875 37.441406 2.382812 37.441406 3.238281 L 37.441406 4.378906 L 1.835938 4.378906 L 1.835938 3.238281 C 1.835938 2.382812 2.527344 1.6875 3.382812 1.6875 Z M 35.890625 0.136719 L 3.382812 0.136719 C 1.675781 0.136719 0.289062 1.527344 0.289062 3.238281 L 0.289062 21.859375 C 0.289062 23.570312 1.675781 24.960938 3.382812 24.960938 L 35.890625 24.960938 C 37.597656 24.960938 38.988281 23.570312 38.988281 21.859375 L 38.988281 3.238281 C 38.988281 1.527344 37.597656 0.136719 35.890625 0.136719 Z M 16.382812 16.792969 C 16.382812 16.363281 16.730469 16.015625 17.160156 16.015625 L 19.265625 16.015625 C 19.695312 16.015625 20.042969 16.363281 20.042969 16.792969 C 20.042969 17.21875 19.695312 17.566406 19.265625 17.566406 L 17.160156 17.566406 C 16.730469 17.566406 16.382812 17.21875 16.382812 16.792969 Z M 10.621094 16.792969 C 10.621094 16.363281 10.96875 16.015625 11.394531 16.015625 L 13.503906 16.015625 C 13.929688 16.015625 14.277344 16.363281 14.277344 16.792969 C 14.277344 17.21875 13.929688 17.566406 13.503906 17.566406 L 11.394531 17.566406 C 10.96875 17.566406 10.621094 17.21875 10.621094 16.792969 Z M 4.855469 16.792969 C 4.855469 16.363281 5.203125 16.015625 5.632812 16.015625 L 7.738281 16.015625 C 8.167969 16.015625 8.511719 16.363281 8.511719 16.792969 C 8.511719 17.21875 8.167969 17.566406 7.738281 17.566406 L 5.632812 17.566406 C 5.203125 17.566406 4.855469 17.21875 4.855469 16.792969 Z M 20.410156 19.617188 C 20.410156 20.042969 20.066406 20.390625 19.636719 20.390625 L 5.632812 20.390625 C 5.203125 20.390625 4.855469 20.042969 4.855469 19.617188 C 4.855469 19.1875 5.203125 18.839844 5.632812 18.839844 L 19.636719 18.839844 C 20.066406 18.839844 20.410156 19.1875 20.410156 19.617188 Z M 31.277344 18.667969 C 31.628906 18.128906 31.835938 17.484375 31.835938 16.792969 C 31.835938 16.101562 31.628906 15.457031 31.277344 14.914062 C 32.21875 15.027344 32.953125 15.820312 32.953125 16.792969 C 32.953125 17.765625 32.21875 18.558594 31.277344 18.667969 Z M 26.496094 16.792969 C 26.496094 15.820312 27.234375 15.023438 28.175781 14.914062 C 27.824219 15.457031 27.617188 16.101562 27.617188 16.792969 C 27.617188 17.484375 27.824219 18.128906 28.175781 18.667969 C 27.234375 18.558594 26.496094 17.765625 26.496094 16.792969 Z M 29.167969 16.792969 C 29.167969 16.265625 29.382812 15.789062 29.726562 15.445312 C 30.070312 15.789062 30.285156 16.265625 30.285156 16.792969 C 30.285156 17.316406 30.070312 17.792969 29.726562 18.136719 C 29.382812 17.792969 29.167969 17.316406 29.167969 16.792969 Z M 31.058594 13.34375 C 30.585938 13.34375 30.136719 13.4375 29.726562 13.613281 C 29.316406 13.4375 28.867188 13.34375 28.390625 13.34375 C 26.496094 13.34375 24.949219 14.890625 24.949219 16.792969 C 24.949219 18.695312 26.496094 20.242188 28.390625 20.242188 C 28.867188 20.242188 29.316406 20.144531 29.726562 19.972656 C 30.136719 20.144531 30.585938 20.242188 31.058594 20.242188 C 32.957031 20.242188 34.5 18.695312 34.5 16.792969 C 34.5 14.890625 32.957031 13.34375 31.058594 13.34375 " fill-opacity="1" fill-rule="nonzero"/></g></g></g></g></svg>