<svg xmlns="http://www.w3.org/2000/svg" xmlns:xlink="http://www.w3.org/1999/xlink" width="110" zoomAndPan="magnify" viewBox="0 0 82.5 30.000001" height="40" preserveAspectRatio="xMidYMid meet" version="1.0"><defs><filter x="0%" y="0%" width="100%" height="100%" id="id1"><feColorMatrix values="0 0 0 0 1 0 0 0 0 1 0 0 0 0 1 0 0 0 1 0" color-interpolation-filters="sRGB"/></filter><g/><clipPath id="id2"><path d="M 8 0 L 34 0 L 34 29.03125 L 8 29.03125 Z M 8 0 " clip-rule="nonzero"/></clipPath><mask id="id3"><g filter="url(#id1)"><rect x="-8.25" width="99" fill="#000000" y="-3" height="36.000001" fill-opacity="0.4"/></g></mask><clipPath id="id4"><path d="M 0.0546875 0.335938 L 25.835938 0.335938 L 25.835938 29.03125 L 0.0546875 29.03125 Z M 0.0546875 0.335938 " clip-rule="nonzero"/></clipPath><clipPath id="id5"><rect x="0" width="26" y="0" height="30"/></clipPath><mask id="id6"><g filter="url(#id1)"><rect x="-8.25" width="99" fill="#000000" y="-3" height="36.000001" fill-opacity="0.4"/></g></mask><clipPath id="id7"><rect x="0" width="45" y="0" height="20"/></clipPath></defs><g clip-path="url(#id2)"><g mask="url(#id3)"><g transform="matrix(1, 0, 0, 1, 8, 0.00000000000000569)"><g clip-path="url(#id5)"><path fill="#b40c26" d="M 6.445312 17.488281 C 6.445312 13.210938 9.847656 9.734375 14.035156 9.734375 C 18.21875 9.734375 21.621094 13.210938 21.621094 17.488281 C 21.207031 27.769531 6.863281 27.773438 6.445312 17.488281 Z M 4.632812 17.488281 C 4.632812 22.785156 8.847656 27.09375 14.035156 27.09375 C 19.21875 27.09375 23.433594 22.785156 23.433594 17.488281 C 22.9375 4.757812 5.136719 4.738281 4.632812 17.488281 " fill-opacity="1" fill-rule="nonzero"/><path fill="#b40c26" d="M 14.824219 6.292969 L 14.824219 2.808594 L 13.242188 2.808594 L 13.242188 6.292969 C 13.765625 6.253906 14.300781 6.253906 14.824219 6.292969 " fill-opacity="1" fill-rule="nonzero"/><path fill="#b40c26" d="M 16.582031 18.296875 L 13.242188 18.296875 L 13.242188 14.882812 L 14.824219 14.882812 L 14.824219 16.679688 L 16.582031 16.679688 Z M 19.984375 16.679688 C 19.628906 13.941406 17.503906 11.769531 14.824219 11.40625 L 14.824219 13.332031 L 13.242188 13.332031 L 13.242188 11.40625 C 10.5625 11.769531 8.4375 13.941406 8.082031 16.679688 L 10.070312 16.679688 L 10.070312 18.296875 L 8.082031 18.296875 C 8.4375 21.035156 10.5625 23.207031 13.242188 23.566406 L 13.242188 21.425781 L 14.824219 21.425781 L 14.824219 23.566406 C 17.503906 23.207031 19.628906 21.035156 19.984375 18.296875 L 17.996094 18.296875 L 17.996094 16.679688 L 19.984375 16.679688 " fill-opacity="1" fill-rule="nonzero"/><g clip-path="url(#id4)"><path fill="#b40c26" d="M 14.035156 28.710938 C 5.171875 28.757812 -0.078125 18.300781 5.078125 10.992188 L 3.308594 9.1875 L 2.1875 10.332031 L 1.070312 9.1875 L 4.429688 5.753906 L 5.550781 6.898438 L 4.429688 8.042969 L 6.089844 9.738281 C 7.585938 8.132812 9.515625 7.011719 11.65625 6.527344 L 11.65625 2.789062 L 10.078125 2.789062 L 10.078125 1.171875 L 18 1.171875 L 18 2.789062 L 16.410156 2.789062 L 16.410156 6.527344 C 29.128906 9.753906 27.121094 28.375 14.035156 28.710938 Z M 17.21875 5.894531 L 17.21875 3.613281 L 18 3.613281 C 18.445312 3.613281 18.808594 3.246094 18.808594 2.789062 L 18.808594 1.171875 C 18.808594 0.714844 18.445312 0.34375 18 0.34375 L 10.078125 0.34375 C 9.628906 0.34375 9.265625 0.714844 9.265625 1.171875 L 9.265625 2.789062 C 9.265625 3.246094 9.628906 3.613281 10.078125 3.613281 L 10.847656 3.613281 L 10.847656 5.882812 C 9.074219 6.386719 7.453125 7.308594 6.097656 8.574219 L 5.574219 8.042969 L 6.121094 7.480469 C 6.273438 7.328125 6.359375 7.117188 6.359375 6.898438 C 6.359375 6.679688 6.273438 6.46875 6.121094 6.3125 L 5.003906 5.167969 C 4.84375 5.007812 4.636719 4.925781 4.429688 4.925781 C 4.222656 4.925781 4.015625 5.007812 3.859375 5.167969 L 0.496094 8.601562 C 0.179688 8.925781 0.179688 9.449219 0.496094 9.769531 L 1.617188 10.914062 C 1.769531 11.070312 1.972656 11.15625 2.1875 11.15625 C 2.402344 11.15625 2.609375 11.070312 2.761719 10.914062 L 3.308594 10.355469 L 4.035156 11.09375 C 1.835938 14.640625 1.644531 19.121094 3.566406 22.960938 C 5.597656 27.015625 9.589844 29.539062 13.976562 29.539062 L 14.054688 29.539062 C 21.324219 29.351562 25.144531 24.007812 25.703125 18.792969 C 26.246094 13.734375 23.816406 7.875 17.21875 5.894531 " fill-opacity="1" fill-rule="nonzero"/></g></g></g></g></g><g mask="url(#id6)"><g transform="matrix(1, 0, 0, 1, 34, 6)"><g clip-path="url(#id7)"><g fill="#b40c26" fill-opacity="1"><g transform="translate(0.881868, 14.914236)"><g><path d="M 0.46875 -7.90625 L 0.46875 -9.609375 L 3.65625 -9.609375 L 3.65625 0 L 1.75 0 L 1.75 -7.90625 Z M 0.46875 -7.90625 "/></g></g></g><g fill="#b40c26" fill-opacity="1"><g transform="translate(5.647151, 14.914236)"><g><path d="M 1.28125 -2.078125 C 2.125 -2.785156 2.796875 -3.375 3.296875 -3.84375 C 3.796875 -4.3125 4.210938 -4.800781 4.546875 -5.3125 C 4.878906 -5.820312 5.046875 -6.320312 5.046875 -6.8125 C 5.046875 -7.257812 4.9375 -7.609375 4.71875 -7.859375 C 4.507812 -8.117188 4.1875 -8.25 3.75 -8.25 C 3.3125 -8.25 2.972656 -8.097656 2.734375 -7.796875 C 2.503906 -7.503906 2.382812 -7.101562 2.375 -6.59375 L 0.578125 -6.59375 C 0.609375 -7.65625 0.921875 -8.457031 1.515625 -9 C 2.109375 -9.539062 2.863281 -9.8125 3.78125 -9.8125 C 4.78125 -9.8125 5.546875 -9.546875 6.078125 -9.015625 C 6.617188 -8.484375 6.890625 -7.785156 6.890625 -6.921875 C 6.890625 -6.234375 6.703125 -5.578125 6.328125 -4.953125 C 5.960938 -4.328125 5.539062 -3.785156 5.0625 -3.328125 C 4.59375 -2.867188 3.976562 -2.3125 3.21875 -1.65625 L 7.09375 -1.65625 L 7.09375 -0.125 L 0.59375 -0.125 L 0.59375 -1.5 Z M 1.28125 -2.078125 "/></g></g></g><g fill="#b40c26" fill-opacity="1"><g transform="translate(13.203154, 14.914236)"><g/></g></g><g fill="#b40c26" fill-opacity="1"><g transform="translate(16.336124, 14.914236)"><g><path d="M 2.75 -6.171875 C 2.988281 -6.554688 3.296875 -6.859375 3.671875 -7.078125 C 4.054688 -7.296875 4.492188 -7.40625 4.984375 -7.40625 L 4.984375 -5.46875 L 4.5 -5.46875 C 3.925781 -5.46875 3.488281 -5.332031 3.1875 -5.0625 C 2.894531 -4.789062 2.75 -4.316406 2.75 -3.640625 L 2.75 0 L 0.90625 0 L 0.90625 -7.296875 L 2.75 -7.296875 Z M 2.75 -6.171875 "/></g></g></g><g fill="#b40c26" fill-opacity="1"><g transform="translate(21.654286, 14.914236)"><g><path d="M 0.4375 -3.671875 C 0.4375 -4.410156 0.582031 -5.066406 0.875 -5.640625 C 1.164062 -6.210938 1.5625 -6.648438 2.0625 -6.953125 C 2.570312 -7.265625 3.140625 -7.421875 3.765625 -7.421875 C 4.304688 -7.421875 4.78125 -7.304688 5.1875 -7.078125 C 5.601562 -6.859375 5.929688 -6.582031 6.171875 -6.25 L 6.171875 -7.296875 L 8.03125 -7.296875 L 8.03125 0 L 6.171875 0 L 6.171875 -1.0625 C 5.941406 -0.71875 5.617188 -0.429688 5.203125 -0.203125 C 4.785156 0.015625 4.300781 0.125 3.75 0.125 C 3.132812 0.125 2.570312 -0.03125 2.0625 -0.34375 C 1.5625 -0.664062 1.164062 -1.113281 0.875 -1.6875 C 0.582031 -2.269531 0.4375 -2.929688 0.4375 -3.671875 Z M 6.171875 -3.65625 C 6.171875 -4.101562 6.082031 -4.484375 5.90625 -4.796875 C 5.738281 -5.117188 5.503906 -5.363281 5.203125 -5.53125 C 4.898438 -5.707031 4.578125 -5.796875 4.234375 -5.796875 C 3.898438 -5.796875 3.585938 -5.710938 3.296875 -5.546875 C 3.003906 -5.378906 2.765625 -5.132812 2.578125 -4.8125 C 2.398438 -4.488281 2.3125 -4.109375 2.3125 -3.671875 C 2.3125 -3.234375 2.398438 -2.847656 2.578125 -2.515625 C 2.765625 -2.191406 3.003906 -1.941406 3.296875 -1.765625 C 3.585938 -1.585938 3.898438 -1.5 4.234375 -1.5 C 4.578125 -1.5 4.898438 -1.582031 5.203125 -1.75 C 5.503906 -1.925781 5.738281 -2.175781 5.90625 -2.5 C 6.082031 -2.820312 6.171875 -3.207031 6.171875 -3.65625 Z M 6.171875 -3.65625 "/></g></g></g><g fill="#b40c26" fill-opacity="1"><g transform="translate(30.579324, 14.914236)"><g><path d="M 3.0625 -5.78125 L 3.0625 -2.25 C 3.0625 -2.007812 3.117188 -1.832031 3.234375 -1.71875 C 3.347656 -1.601562 3.546875 -1.546875 3.828125 -1.546875 L 4.6875 -1.546875 L 4.6875 0 L 3.53125 0 C 1.976562 0 1.203125 -0.753906 1.203125 -2.265625 L 1.203125 -5.78125 L 0.328125 -5.78125 L 0.328125 -7.296875 L 1.203125 -7.296875 L 1.203125 -9.109375 L 3.0625 -9.109375 L 3.0625 -7.296875 L 4.6875 -7.296875 L 4.6875 -5.78125 Z M 3.0625 -5.78125 "/></g></g></g><g fill="#b40c26" fill-opacity="1"><g transform="translate(35.686858, 14.914236)"><g><path d="M 0.4375 -3.671875 C 0.4375 -4.410156 0.582031 -5.066406 0.875 -5.640625 C 1.164062 -6.210938 1.5625 -6.648438 2.0625 -6.953125 C 2.570312 -7.265625 3.140625 -7.421875 3.765625 -7.421875 C 4.304688 -7.421875 4.78125 -7.304688 5.1875 -7.078125 C 5.601562 -6.859375 5.929688 -6.582031 6.171875 -6.25 L 6.171875 -7.296875 L 8.03125 -7.296875 L 8.03125 0 L 6.171875 0 L 6.171875 -1.0625 C 5.941406 -0.71875 5.617188 -0.429688 5.203125 -0.203125 C 4.785156 0.015625 4.300781 0.125 3.75 0.125 C 3.132812 0.125 2.570312 -0.03125 2.0625 -0.34375 C 1.5625 -0.664062 1.164062 -1.113281 0.875 -1.6875 C 0.582031 -2.269531 0.4375 -2.929688 0.4375 -3.671875 Z M 6.171875 -3.65625 C 6.171875 -4.101562 6.082031 -4.484375 5.90625 -4.796875 C 5.738281 -5.117188 5.503906 -5.363281 5.203125 -5.53125 C 4.898438 -5.707031 4.578125 -5.796875 4.234375 -5.796875 C 3.898438 -5.796875 3.585938 -5.710938 3.296875 -5.546875 C 3.003906 -5.378906 2.765625 -5.132812 2.578125 -4.8125 C 2.398438 -4.488281 2.3125 -4.109375 2.3125 -3.671875 C 2.3125 -3.234375 2.398438 -2.847656 2.578125 -2.515625 C 2.765625 -2.191406 3.003906 -1.941406 3.296875 -1.765625 C 3.585938 -1.585938 3.898438 -1.5 4.234375 -1.5 C 4.578125 -1.5 4.898438 -1.582031 5.203125 -1.75 C 5.503906 -1.925781 5.738281 -2.175781 5.90625 -2.5 C 6.082031 -2.820312 6.171875 -3.207031 6.171875 -3.65625 Z M 6.171875 -3.65625 "/></g></g></g></g></g></g></svg>