<svg xmlns="http://www.w3.org/2000/svg" xmlns:xlink="http://www.w3.org/1999/xlink" width="110" zoomAndPan="magnify" viewBox="0 0 82.5 30.000001" height="40" preserveAspectRatio="xMidYMid meet" version="1.0"><defs><filter x="0%" y="0%" width="100%" height="100%" id="id1"><feColorMatrix values="0 0 0 0 1 0 0 0 0 1 0 0 0 0 1 0 0 0 1 0" color-interpolation-filters="sRGB"/></filter><g/><mask id="id2"><g filter="url(#id1)"><rect x="-8.25" width="99" fill="#000000" y="-3" height="36.000001" fill-opacity="0.3882"/></g></mask><clipPath id="id3"><path d="M 0.300781 0.921875 L 32.429688 0.921875 L 32.429688 25.746094 L 0.300781 25.746094 Z M 0.300781 0.921875 " clip-rule="nonzero"/></clipPath><clipPath id="id4"><rect x="0" width="33" y="0" height="26"/></clipPath><clipPath id="id5"><path d="M 36 4 L 80.925781 4 L 80.925781 26 L 36 26 Z M 36 4 " clip-rule="nonzero"/></clipPath><mask id="id6"><g filter="url(#id1)"><rect x="-8.25" width="99" fill="#000000" y="-3" height="36.000001" fill-opacity="0.3882"/></g></mask><clipPath id="id7"><rect x="0" width="45" y="0" height="22"/></clipPath></defs><g mask="url(#id2)"><g transform="matrix(1, 0, 0, 1, 4, 2)"><g clip-path="url(#id4)"><g clip-path="url(#id3)"><path fill="#b40c26" d="M 31.679688 0.929688 L 1.058594 0.929688 C 0.640625 0.929688 0.304688 1.269531 0.304688 1.691406 L 0.304688 19.074219 C 0.304688 19.496094 0.640625 19.851562 1.058594 19.851562 L 12.304688 19.851562 C 12.375 17.308594 11.90625 15.820312 13.574219 14.144531 C 14.332031 13.671875 15.324219 12.636719 17.382812 13.15625 C 17.515625 13.179688 17.949219 13.332031 18.21875 13.480469 L 18.234375 13.480469 C 19.535156 14.175781 20.433594 15.519531 20.433594 17.101562 L 20.433594 19.851562 L 31.679688 19.851562 C 32.097656 19.851562 32.433594 19.496094 32.433594 19.074219 L 32.433594 1.691406 C 32.433594 1.269531 32.097656 0.929688 31.679688 0.929688 Z M 23.839844 11.878906 L 8.898438 11.878906 C 8.546875 11.878906 8.257812 11.589844 8.257812 11.234375 C 8.257812 10.878906 8.546875 10.585938 8.898438 10.585938 L 23.839844 10.585938 C 24.191406 10.585938 24.480469 10.878906 24.480469 11.234375 C 24.480469 11.589844 24.191406 11.878906 23.839844 11.878906 Z M 23.839844 8.597656 L 8.898438 8.597656 C 8.546875 8.597656 8.257812 8.304688 8.257812 7.949219 C 8.257812 7.59375 8.546875 7.300781 8.898438 7.300781 L 23.839844 7.300781 C 24.191406 7.300781 24.480469 7.59375 24.480469 7.949219 C 24.480469 8.304688 24.191406 8.597656 23.839844 8.597656 Z M 23.839844 5.296875 L 8.898438 5.296875 C 8.546875 5.296875 8.257812 5.007812 8.257812 4.652344 C 8.257812 4.292969 8.546875 4.003906 8.898438 4.003906 L 23.839844 4.003906 C 24.191406 4.003906 24.480469 4.292969 24.480469 4.652344 C 24.480469 5.007812 24.191406 5.296875 23.839844 5.296875 Z M 19.085938 17.199219 C 19.035156 18.671875 17.847656 19.851562 16.371094 19.851562 C 14.335938 19.851562 12.753906 17.566406 14.183594 15.492188 C 14.472656 15.074219 14.9375 14.601562 15.9375 14.402344 C 17.636719 14.117188 19.039062 15.511719 19.085938 17.199219 Z M 19.070312 25.074219 C 19.070312 25.089844 19.070312 25.101562 19.066406 25.125 C 19.164062 25.464844 18.796875 25.707031 18.523438 25.511719 C 15.78125 23.730469 16.949219 23.730469 14.199219 25.542969 C 13.945312 25.738281 13.574219 25.480469 13.65625 25.15625 C 13.65625 25.136719 13.65625 25.121094 13.65625 25.109375 C 13.652344 24.902344 13.652344 23.921875 13.636719 20.144531 C 15.316406 21.492188 17.246094 21.636719 19.101562 20.144531 C 19.078125 23.894531 19.070312 24.871094 19.070312 25.074219 Z M 19.070312 25.074219 " fill-opacity="1" fill-rule="nonzero"/></g></g></g></g><g clip-path="url(#id5)"><g mask="url(#id6)"><g transform="matrix(1, 0, 0, 1, 36, 4)"><g clip-path="url(#id7)"><g fill="#b40c26" fill-opacity="1"><g transform="translate(0.961079, 16.731748)"><g><path d="M 3.0625 -10.859375 L 3.0625 0 L 1.015625 0 L 1.015625 -10.859375 Z M 3.0625 -10.859375 "/></g></g></g><g fill="#b40c26" fill-opacity="1"><g transform="translate(5.038174, 16.731748)"><g><path d="M 4.625 0.125 C 3.84375 0.125 3.132812 -0.046875 2.5 -0.390625 C 1.875 -0.734375 1.382812 -1.222656 1.03125 -1.859375 C 0.675781 -2.492188 0.5 -3.226562 0.5 -4.0625 C 0.5 -4.894531 0.679688 -5.628906 1.046875 -6.265625 C 1.410156 -6.898438 1.910156 -7.390625 2.546875 -7.734375 C 3.179688 -8.085938 3.894531 -8.265625 4.6875 -8.265625 C 5.46875 -8.265625 6.175781 -8.085938 6.8125 -7.734375 C 7.445312 -7.390625 7.945312 -6.898438 8.3125 -6.265625 C 8.675781 -5.628906 8.859375 -4.894531 8.859375 -4.0625 C 8.859375 -3.226562 8.671875 -2.492188 8.296875 -1.859375 C 7.921875 -1.222656 7.410156 -0.734375 6.765625 -0.390625 C 6.128906 -0.046875 5.414062 0.125 4.625 0.125 Z M 4.625 -1.65625 C 4.988281 -1.65625 5.332031 -1.742188 5.65625 -1.921875 C 5.988281 -2.109375 6.253906 -2.378906 6.453125 -2.734375 C 6.648438 -3.097656 6.75 -3.539062 6.75 -4.0625 C 6.75 -4.832031 6.546875 -5.425781 6.140625 -5.84375 C 5.734375 -6.257812 5.238281 -6.46875 4.65625 -6.46875 C 4.0625 -6.46875 3.566406 -6.257812 3.171875 -5.84375 C 2.773438 -5.425781 2.578125 -4.832031 2.578125 -4.0625 C 2.578125 -3.289062 2.769531 -2.695312 3.15625 -2.28125 C 3.539062 -1.863281 4.03125 -1.65625 4.625 -1.65625 Z M 4.625 -1.65625 "/></g></g></g><g fill="#b40c26" fill-opacity="1"><g transform="translate(14.394967, 16.731748)"><g><path d="M 3.0625 -6.859375 C 3.332031 -7.296875 3.675781 -7.632812 4.09375 -7.875 C 4.519531 -8.125 5.007812 -8.25 5.5625 -8.25 L 5.5625 -6.09375 L 5.015625 -6.09375 C 4.367188 -6.09375 3.878906 -5.9375 3.546875 -5.625 C 3.222656 -5.320312 3.0625 -4.796875 3.0625 -4.046875 L 3.0625 0 L 1.015625 0 L 1.015625 -8.125 L 3.0625 -8.125 Z M 3.0625 -6.859375 "/></g></g></g><g fill="#b40c26" fill-opacity="1"><g transform="translate(20.319958, 16.731748)"><g><path d="M 8.5625 -4.234375 C 8.5625 -3.941406 8.546875 -3.679688 8.515625 -3.453125 L 2.5625 -3.453125 C 2.613281 -2.859375 2.820312 -2.394531 3.1875 -2.0625 C 3.550781 -1.726562 3.992188 -1.5625 4.515625 -1.5625 C 5.273438 -1.5625 5.816406 -1.890625 6.140625 -2.546875 L 8.359375 -2.546875 C 8.128906 -1.765625 7.679688 -1.125 7.015625 -0.625 C 6.347656 -0.125 5.53125 0.125 4.5625 0.125 C 3.78125 0.125 3.078125 -0.046875 2.453125 -0.390625 C 1.835938 -0.734375 1.351562 -1.222656 1 -1.859375 C 0.65625 -2.492188 0.484375 -3.226562 0.484375 -4.0625 C 0.484375 -4.90625 0.65625 -5.644531 1 -6.28125 C 1.34375 -6.914062 1.820312 -7.40625 2.4375 -7.75 C 3.050781 -8.09375 3.757812 -8.265625 4.5625 -8.265625 C 5.332031 -8.265625 6.023438 -8.097656 6.640625 -7.765625 C 7.253906 -7.429688 7.726562 -6.957031 8.0625 -6.34375 C 8.394531 -5.726562 8.5625 -5.023438 8.5625 -4.234375 Z M 6.4375 -4.828125 C 6.425781 -5.359375 6.234375 -5.78125 5.859375 -6.09375 C 5.492188 -6.414062 5.039062 -6.578125 4.5 -6.578125 C 3.988281 -6.578125 3.5625 -6.421875 3.21875 -6.109375 C 2.875 -5.804688 2.660156 -5.378906 2.578125 -4.828125 Z M 6.4375 -4.828125 "/></g></g></g><g fill="#b40c26" fill-opacity="1"><g transform="translate(29.36876, 16.731748)"><g><path d="M 11.109375 -8.25 C 12.109375 -8.25 12.910156 -7.941406 13.515625 -7.328125 C 14.128906 -6.710938 14.4375 -5.859375 14.4375 -4.765625 L 14.4375 0 L 12.390625 0 L 12.390625 -4.484375 C 12.390625 -5.117188 12.226562 -5.601562 11.90625 -5.9375 C 11.582031 -6.28125 11.140625 -6.453125 10.578125 -6.453125 C 10.015625 -6.453125 9.570312 -6.28125 9.25 -5.9375 C 8.925781 -5.601562 8.765625 -5.117188 8.765625 -4.484375 L 8.765625 0 L 6.703125 0 L 6.703125 -4.484375 C 6.703125 -5.117188 6.539062 -5.601562 6.21875 -5.9375 C 5.894531 -6.28125 5.457031 -6.453125 4.90625 -6.453125 C 4.332031 -6.453125 3.878906 -6.28125 3.546875 -5.9375 C 3.222656 -5.601562 3.0625 -5.117188 3.0625 -4.484375 L 3.0625 0 L 1.015625 0 L 1.015625 -8.125 L 3.0625 -8.125 L 3.0625 -7.140625 C 3.332031 -7.484375 3.671875 -7.753906 4.078125 -7.953125 C 4.492188 -8.148438 4.953125 -8.25 5.453125 -8.25 C 6.085938 -8.25 6.65625 -8.113281 7.15625 -7.84375 C 7.65625 -7.570312 8.039062 -7.1875 8.3125 -6.6875 C 8.582031 -7.15625 8.96875 -7.53125 9.46875 -7.8125 C 9.96875 -8.101562 10.515625 -8.25 11.109375 -8.25 Z M 11.109375 -8.25 "/></g></g></g></g></g></g></g></svg>