<svg xmlns="http://www.w3.org/2000/svg" xmlns:xlink="http://www.w3.org/1999/xlink" width="110" zoomAndPan="magnify" viewBox="0 0 82.5 30.000001" height="40" preserveAspectRatio="xMidYMid meet" version="1.0"><defs><filter x="0%" y="0%" width="100%" height="100%" id="id1"><feColorMatrix values="0 0 0 0 1 0 0 0 0 1 0 0 0 0 1 0 0 0 1 0" color-interpolation-filters="sRGB"/></filter><g/><mask id="id2"><g filter="url(#id1)"><rect x="-8.25" width="99" fill="#000000" y="-3" height="36.000001" fill-opacity="0.4078"/></g></mask><clipPath id="id3"><path d="M 1.007812 0.644531 L 33.855469 0.644531 L 33.855469 24 L 1.007812 24 Z M 1.007812 0.644531 " clip-rule="nonzero"/></clipPath><clipPath id="id4"><path d="M 8.757812 26.046875 L 26.121094 26.046875 L 26.121094 28.390625 L 8.757812 28.390625 Z M 8.757812 26.046875 " clip-rule="nonzero"/></clipPath><clipPath id="id5"><rect x="0" width="34" y="0" height="29"/></clipPath><clipPath id="id6"><path d="M 36 4 L 80.925781 4 L 80.925781 24 L 36 24 Z M 36 4 " clip-rule="nonzero"/></clipPath><mask id="id7"><g filter="url(#id1)"><rect x="-8.25" width="99" fill="#000000" y="-3" height="36.000001" fill-opacity="0.4078"/></g></mask><clipPath id="id8"><rect x="0" width="45" y="0" height="20"/></clipPath></defs><g mask="url(#id2)"><g transform="matrix(1, 0, 0, 1, 3, 0.000000000000005718)"><g clip-path="url(#id5)"><g clip-path="url(#id3)"><path fill="#b40c26" d="M 31.714844 20.804688 C 31.714844 20.847656 31.6875 20.875 31.65625 20.875 L 3.21875 20.875 C 3.191406 20.875 3.164062 20.847656 3.164062 20.804688 L 3.164062 2.851562 C 3.164062 2.820312 3.191406 2.792969 3.21875 2.792969 L 31.65625 2.792969 C 31.6875 2.792969 31.714844 2.820312 31.714844 2.851562 Z M 31.65625 0.644531 L 3.21875 0.644531 C 2.015625 0.644531 1.023438 1.640625 1.023438 2.851562 L 1.023438 20.804688 C 1.023438 22.027344 2.015625 23.023438 3.21875 23.023438 L 31.65625 23.023438 C 32.875 23.023438 33.855469 22.027344 33.855469 20.804688 L 33.855469 2.851562 C 33.855469 1.640625 32.875 0.644531 31.65625 0.644531 " fill-opacity="1" fill-rule="nonzero"/></g><path fill="#b40c26" d="M 12.570312 23.453125 L 12.570312 25.660156 L 22.320312 25.660156 L 22.320312 23.453125 L 12.570312 23.453125 " fill-opacity="1" fill-rule="nonzero"/><g clip-path="url(#id4)"><path fill="#b40c26" d="M 23.765625 26.085938 L 11.113281 26.085938 C 9.851562 26.085938 8.816406 27.125 8.816406 28.390625 L 26.0625 28.390625 C 26.0625 27.125 25.027344 26.085938 23.765625 26.085938 " fill-opacity="1" fill-rule="nonzero"/></g><path fill="#b40c26" d="M 9.992188 16.832031 C 9.667969 17.171875 9.199219 17.386719 8.675781 17.386719 C 8.164062 17.386719 7.699219 17.171875 7.359375 16.832031 C 7.019531 16.488281 6.804688 16.019531 6.804688 15.507812 C 6.804688 14.980469 7.019531 14.511719 7.359375 14.167969 C 7.699219 13.839844 8.164062 13.628906 8.675781 13.628906 C 9.1875 13.628906 9.652344 13.839844 9.992188 14.183594 C 10.332031 14.511719 10.546875 14.980469 10.546875 15.507812 C 10.546875 16.019531 10.332031 16.488281 9.992188 16.832031 Z M 8.675781 12.546875 C 7.867188 12.546875 7.132812 12.886719 6.605469 13.414062 L 6.59375 13.414062 C 6.070312 13.953125 5.742188 14.695312 5.742188 15.507812 C 5.742188 16.320312 6.070312 17.058594 6.59375 17.585938 C 7.132812 18.125 7.867188 18.453125 8.675781 18.453125 C 9.484375 18.453125 10.21875 18.125 10.746094 17.585938 L 10.757812 17.585938 C 11.28125 17.058594 11.609375 16.320312 11.609375 15.507812 C 11.609375 14.695312 11.28125 13.953125 10.757812 13.414062 C 10.21875 12.886719 9.484375 12.546875 8.675781 12.546875 " fill-opacity="1" fill-rule="nonzero"/><path fill="#b40c26" d="M 14.203125 14.796875 L 28.613281 14.796875 L 28.613281 13.714844 L 14.203125 13.714844 L 14.203125 14.796875 " fill-opacity="1" fill-rule="nonzero"/><path fill="#b40c26" d="M 9.992188 9.484375 C 9.667969 9.828125 9.199219 10.039062 8.675781 10.039062 C 8.164062 10.039062 7.699219 9.828125 7.359375 9.484375 C 7.019531 9.144531 6.804688 8.671875 6.804688 8.160156 C 6.804688 7.632812 7.019531 7.164062 7.359375 6.835938 C 7.699219 6.496094 8.164062 6.28125 8.675781 6.28125 C 9.1875 6.28125 9.652344 6.496094 9.992188 6.835938 C 10.332031 7.179688 10.546875 7.632812 10.546875 8.160156 C 10.546875 8.671875 10.332031 9.144531 9.992188 9.484375 Z M 8.675781 5.214844 C 7.867188 5.214844 7.132812 5.539062 6.605469 6.066406 L 6.59375 6.066406 C 6.070312 6.609375 5.742188 7.347656 5.742188 8.160156 C 5.742188 8.972656 6.070312 9.710938 6.59375 10.238281 C 7.132812 10.78125 7.867188 11.109375 8.675781 11.109375 C 9.484375 11.109375 10.21875 10.78125 10.746094 10.238281 L 10.757812 10.238281 C 11.28125 9.710938 11.609375 8.972656 11.609375 8.160156 C 11.609375 7.347656 11.28125 6.609375 10.757812 6.066406 C 10.21875 5.539062 9.484375 5.214844 8.675781 5.214844 " fill-opacity="1" fill-rule="nonzero"/><path fill="#b40c26" d="M 14.203125 9.941406 L 28.613281 9.941406 L 28.613281 8.871094 L 14.203125 8.871094 L 14.203125 9.941406 " fill-opacity="1" fill-rule="nonzero"/><path fill="#b40c26" d="M 14.203125 7.449219 L 28.613281 7.449219 L 28.613281 6.367188 L 14.203125 6.367188 L 14.203125 7.449219 " fill-opacity="1" fill-rule="nonzero"/><path fill="#b40c26" d="M 14.203125 17.285156 L 28.613281 17.285156 L 28.613281 16.21875 L 14.203125 16.21875 L 14.203125 17.285156 " fill-opacity="1" fill-rule="nonzero"/></g></g></g><g clip-path="url(#id6)"><g mask="url(#id7)"><g transform="matrix(1, 0, 0, 1, 36, 4)"><g clip-path="url(#id8)"><g fill="#b40c26" fill-opacity="1"><g transform="translate(1.419908, 15.009235)"><g><path d="M 4.203125 0.125 C 3.492188 0.125 2.851562 -0.03125 2.28125 -0.34375 C 1.707031 -0.664062 1.257812 -1.113281 0.9375 -1.6875 C 0.613281 -2.269531 0.453125 -2.941406 0.453125 -3.703125 C 0.453125 -4.453125 0.617188 -5.113281 0.953125 -5.6875 C 1.285156 -6.269531 1.738281 -6.71875 2.3125 -7.03125 C 2.894531 -7.351562 3.539062 -7.515625 4.25 -7.515625 C 4.96875 -7.515625 5.613281 -7.351562 6.1875 -7.03125 C 6.769531 -6.71875 7.226562 -6.269531 7.5625 -5.6875 C 7.894531 -5.113281 8.0625 -4.453125 8.0625 -3.703125 C 8.0625 -2.941406 7.890625 -2.269531 7.546875 -1.6875 C 7.203125 -1.113281 6.738281 -0.664062 6.15625 -0.34375 C 5.570312 -0.03125 4.921875 0.125 4.203125 0.125 Z M 4.203125 -1.515625 C 4.535156 -1.515625 4.851562 -1.59375 5.15625 -1.75 C 5.457031 -1.914062 5.695312 -2.160156 5.875 -2.484375 C 6.050781 -2.816406 6.140625 -3.222656 6.140625 -3.703125 C 6.140625 -4.398438 5.953125 -4.9375 5.578125 -5.3125 C 5.210938 -5.695312 4.765625 -5.890625 4.234375 -5.890625 C 3.691406 -5.890625 3.238281 -5.695312 2.875 -5.3125 C 2.519531 -4.9375 2.34375 -4.398438 2.34375 -3.703125 C 2.34375 -2.992188 2.519531 -2.453125 2.875 -2.078125 C 3.226562 -1.703125 3.671875 -1.515625 4.203125 -1.515625 Z M 4.203125 -1.515625 "/></g></g></g><g fill="#b40c26" fill-opacity="1"><g transform="translate(9.92395, 15.009235)"><g><path d="M 5.015625 -7.5 C 5.898438 -7.5 6.613281 -7.21875 7.15625 -6.65625 C 7.695312 -6.101562 7.96875 -5.332031 7.96875 -4.34375 L 7.96875 0 L 6.09375 0 L 6.09375 -4.078125 C 6.09375 -4.671875 5.945312 -5.125 5.65625 -5.4375 C 5.363281 -5.75 4.960938 -5.90625 4.453125 -5.90625 C 3.941406 -5.90625 3.535156 -5.75 3.234375 -5.4375 C 2.929688 -5.125 2.78125 -4.671875 2.78125 -4.078125 L 2.78125 0 L 0.921875 0 L 0.921875 -7.390625 L 2.78125 -7.390625 L 2.78125 -6.46875 C 3.03125 -6.789062 3.347656 -7.039062 3.734375 -7.21875 C 4.128906 -7.40625 4.554688 -7.5 5.015625 -7.5 Z M 5.015625 -7.5 "/></g></g></g><g fill="#b40c26" fill-opacity="1"><g transform="translate(18.734552, 15.009235)"><g><path d="M 2.78125 -9.875 L 2.78125 0 L 0.921875 0 L 0.921875 -9.875 Z M 2.78125 -9.875 "/></g></g></g><g fill="#b40c26" fill-opacity="1"><g transform="translate(22.440073, 15.009235)"><g><path d="M 1.875 -8.265625 C 1.539062 -8.265625 1.265625 -8.367188 1.046875 -8.578125 C 0.828125 -8.796875 0.71875 -9.0625 0.71875 -9.375 C 0.71875 -9.675781 0.828125 -9.929688 1.046875 -10.140625 C 1.265625 -10.359375 1.539062 -10.46875 1.875 -10.46875 C 2.195312 -10.46875 2.46875 -10.359375 2.6875 -10.140625 C 2.90625 -9.929688 3.015625 -9.675781 3.015625 -9.375 C 3.015625 -9.0625 2.90625 -8.796875 2.6875 -8.578125 C 2.46875 -8.367188 2.195312 -8.265625 1.875 -8.265625 Z M 2.78125 -7.390625 L 2.78125 0 L 0.921875 0 L 0.921875 -7.390625 Z M 2.78125 -7.390625 "/></g></g></g><g fill="#b40c26" fill-opacity="1"><g transform="translate(26.145594, 15.009235)"><g><path d="M 5.015625 -7.5 C 5.898438 -7.5 6.613281 -7.21875 7.15625 -6.65625 C 7.695312 -6.101562 7.96875 -5.332031 7.96875 -4.34375 L 7.96875 0 L 6.09375 0 L 6.09375 -4.078125 C 6.09375 -4.671875 5.945312 -5.125 5.65625 -5.4375 C 5.363281 -5.75 4.960938 -5.90625 4.453125 -5.90625 C 3.941406 -5.90625 3.535156 -5.75 3.234375 -5.4375 C 2.929688 -5.125 2.78125 -4.671875 2.78125 -4.078125 L 2.78125 0 L 0.921875 0 L 0.921875 -7.390625 L 2.78125 -7.390625 L 2.78125 -6.46875 C 3.03125 -6.789062 3.347656 -7.039062 3.734375 -7.21875 C 4.128906 -7.40625 4.554688 -7.5 5.015625 -7.5 Z M 5.015625 -7.5 "/></g></g></g><g fill="#b40c26" fill-opacity="1"><g transform="translate(34.956196, 15.009235)"><g><path d="M 7.796875 -3.859375 C 7.796875 -3.585938 7.773438 -3.347656 7.734375 -3.140625 L 2.328125 -3.140625 C 2.378906 -2.597656 2.566406 -2.175781 2.890625 -1.875 C 3.222656 -1.570312 3.628906 -1.421875 4.109375 -1.421875 C 4.804688 -1.421875 5.300781 -1.722656 5.59375 -2.328125 L 7.609375 -2.328125 C 7.390625 -1.609375 6.976562 -1.019531 6.375 -0.5625 C 5.769531 -0.101562 5.03125 0.125 4.15625 0.125 C 3.4375 0.125 2.796875 -0.03125 2.234375 -0.34375 C 1.671875 -0.664062 1.226562 -1.113281 0.90625 -1.6875 C 0.59375 -2.269531 0.4375 -2.941406 0.4375 -3.703125 C 0.4375 -4.460938 0.59375 -5.128906 0.90625 -5.703125 C 1.21875 -6.285156 1.65625 -6.734375 2.21875 -7.046875 C 2.78125 -7.359375 3.425781 -7.515625 4.15625 -7.515625 C 4.851562 -7.515625 5.476562 -7.363281 6.03125 -7.0625 C 6.59375 -6.757812 7.023438 -6.328125 7.328125 -5.765625 C 7.640625 -5.210938 7.796875 -4.578125 7.796875 -3.859375 Z M 5.859375 -4.390625 C 5.847656 -4.867188 5.671875 -5.253906 5.328125 -5.546875 C 4.992188 -5.835938 4.582031 -5.984375 4.09375 -5.984375 C 3.632812 -5.984375 3.242188 -5.84375 2.921875 -5.5625 C 2.609375 -5.28125 2.414062 -4.890625 2.34375 -4.390625 Z M 5.859375 -4.390625 "/></g></g></g></g></g></g></g></svg>