<svg xmlns="http://www.w3.org/2000/svg" xmlns:xlink="http://www.w3.org/1999/xlink" width="110" zoomAndPan="magnify" viewBox="0 0 82.5 30.000001" height="40" preserveAspectRatio="xMidYMid meet" version="1.0"><defs><filter x="0%" y="0%" width="100%" height="100%" id="id1"><feColorMatrix values="0 0 0 0 1 0 0 0 0 1 0 0 0 0 1 0 0 0 1 0" color-interpolation-filters="sRGB"/></filter><g/><mask id="id2"><g filter="url(#id1)"><rect x="-8.25" width="99" fill="#000000" y="-3" height="36.000001" fill-opacity="0.4"/></g></mask><clipPath id="id3"><rect x="0" width="37" y="0" height="29"/></clipPath><clipPath id="id4"><path d="M 2 0 L 40 0 L 40 29.03125 L 2 29.03125 Z M 2 0 " clip-rule="nonzero"/></clipPath><mask id="id5"><g filter="url(#id1)"><rect x="-8.25" width="99" fill="#000000" y="-3" height="36.000001" fill-opacity="0.4"/></g></mask><clipPath id="id6"><path d="M 1.132812 0 L 37.644531 0 L 37.644531 29.03125 L 1.132812 29.03125 Z M 1.132812 0 " clip-rule="nonzero"/></clipPath><clipPath id="id7"><rect x="0" width="38" y="0" height="30"/></clipPath></defs><g mask="url(#id2)"><g transform="matrix(1, 0, 0, 1, 40, 0.000000000000005692)"><g clip-path="url(#id3)"><g fill="#b40c26" fill-opacity="1"><g transform="translate(0.689447, 14.30618)"><g><path d="M 5.171875 -7.734375 C 6.078125 -7.734375 6.8125 -7.445312 7.375 -6.875 C 7.9375 -6.300781 8.21875 -5.5 8.21875 -4.46875 L 8.21875 0 L 6.296875 0 L 6.296875 -4.21875 C 6.296875 -4.820312 6.140625 -5.285156 5.828125 -5.609375 C 5.523438 -5.929688 5.113281 -6.09375 4.59375 -6.09375 C 4.0625 -6.09375 3.640625 -5.929688 3.328125 -5.609375 C 3.023438 -5.285156 2.875 -4.820312 2.875 -4.21875 L 2.875 0 L 0.953125 0 L 0.953125 -7.625 L 2.875 -7.625 L 2.875 -6.671875 C 3.132812 -7.003906 3.460938 -7.265625 3.859375 -7.453125 C 4.253906 -7.640625 4.691406 -7.734375 5.171875 -7.734375 Z M 5.171875 -7.734375 "/></g></g></g><g fill="#b40c26" fill-opacity="1"><g transform="translate(9.788361, 14.30618)"><g><path d="M 4.34375 0.125 C 3.601562 0.125 2.9375 -0.0351562 2.34375 -0.359375 C 1.757812 -0.691406 1.300781 -1.15625 0.96875 -1.75 C 0.632812 -2.34375 0.46875 -3.03125 0.46875 -3.8125 C 0.46875 -4.59375 0.640625 -5.28125 0.984375 -5.875 C 1.328125 -6.46875 1.796875 -6.925781 2.390625 -7.25 C 2.992188 -7.582031 3.660156 -7.75 4.390625 -7.75 C 5.128906 -7.75 5.796875 -7.582031 6.390625 -7.25 C 6.984375 -6.925781 7.453125 -6.46875 7.796875 -5.875 C 8.140625 -5.28125 8.3125 -4.59375 8.3125 -3.8125 C 8.3125 -3.03125 8.132812 -2.34375 7.78125 -1.75 C 7.425781 -1.15625 6.945312 -0.691406 6.34375 -0.359375 C 5.75 -0.0351562 5.082031 0.125 4.34375 0.125 Z M 4.34375 -1.5625 C 4.6875 -1.5625 5.007812 -1.644531 5.3125 -1.8125 C 5.625 -1.976562 5.867188 -2.226562 6.046875 -2.5625 C 6.234375 -2.90625 6.328125 -3.320312 6.328125 -3.8125 C 6.328125 -4.539062 6.132812 -5.097656 5.75 -5.484375 C 5.375 -5.878906 4.910156 -6.078125 4.359375 -6.078125 C 3.804688 -6.078125 3.34375 -5.878906 2.96875 -5.484375 C 2.601562 -5.097656 2.421875 -4.539062 2.421875 -3.8125 C 2.421875 -3.082031 2.601562 -2.523438 2.96875 -2.140625 C 3.332031 -1.753906 3.789062 -1.5625 4.34375 -1.5625 Z M 4.34375 -1.5625 "/></g></g></g><g fill="#b40c26" fill-opacity="1"><g transform="translate(18.570673, 14.30618)"><g><path d="M 4.125 -1.78125 L 6.0625 -7.625 L 8.109375 -7.625 L 5.28125 0 L 2.953125 0 L 0.140625 -7.625 L 2.203125 -7.625 Z M 4.125 -1.78125 "/></g></g></g><g fill="#b40c26" fill-opacity="1"><g transform="translate(26.816131, 14.30618)"><g><path d="M 0.453125 -3.84375 C 0.453125 -4.613281 0.601562 -5.296875 0.90625 -5.890625 C 1.21875 -6.484375 1.632812 -6.941406 2.15625 -7.265625 C 2.6875 -7.585938 3.28125 -7.75 3.9375 -7.75 C 4.507812 -7.75 5.007812 -7.632812 5.4375 -7.40625 C 5.863281 -7.175781 6.203125 -6.882812 6.453125 -6.53125 L 6.453125 -7.625 L 8.390625 -7.625 L 8.390625 0 L 6.453125 0 L 6.453125 -1.109375 C 6.203125 -0.753906 5.859375 -0.457031 5.421875 -0.21875 C 4.992188 0.0078125 4.492188 0.125 3.921875 0.125 C 3.273438 0.125 2.6875 -0.0390625 2.15625 -0.375 C 1.632812 -0.707031 1.21875 -1.171875 0.90625 -1.765625 C 0.601562 -2.367188 0.453125 -3.0625 0.453125 -3.84375 Z M 6.453125 -3.8125 C 6.453125 -4.28125 6.359375 -4.679688 6.171875 -5.015625 C 5.992188 -5.347656 5.75 -5.601562 5.4375 -5.78125 C 5.125 -5.96875 4.789062 -6.0625 4.4375 -6.0625 C 4.070312 -6.0625 3.738281 -5.972656 3.4375 -5.796875 C 3.132812 -5.617188 2.890625 -5.363281 2.703125 -5.03125 C 2.515625 -4.695312 2.421875 -4.300781 2.421875 -3.84375 C 2.421875 -3.382812 2.515625 -2.984375 2.703125 -2.640625 C 2.890625 -2.296875 3.132812 -2.03125 3.4375 -1.84375 C 3.75 -1.65625 4.082031 -1.5625 4.4375 -1.5625 C 4.789062 -1.5625 5.125 -1.648438 5.4375 -1.828125 C 5.75 -2.015625 5.992188 -2.273438 6.171875 -2.609375 C 6.359375 -2.941406 6.453125 -3.34375 6.453125 -3.8125 Z M 6.453125 -3.8125 "/></g></g></g><g fill="#b40c26" fill-opacity="1"><g transform="translate(2.550023, 25.049957)"><g><path d="M 3.21875 -1.390625 L 4.734375 -5.953125 L 6.328125 -5.953125 L 4.125 0 L 2.296875 0 L 0.109375 -5.953125 L 1.71875 -5.953125 Z M 3.21875 -1.390625 "/></g></g></g><g fill="#b40c26" fill-opacity="1"><g transform="translate(8.985589, 25.049957)"><g><path d="M 3.390625 0.09375 C 2.816406 0.09375 2.300781 -0.03125 1.84375 -0.28125 C 1.382812 -0.539062 1.019531 -0.898438 0.75 -1.359375 C 0.488281 -1.828125 0.359375 -2.367188 0.359375 -2.984375 C 0.359375 -3.585938 0.492188 -4.117188 0.765625 -4.578125 C 1.035156 -5.046875 1.398438 -5.40625 1.859375 -5.65625 C 2.328125 -5.914062 2.847656 -6.046875 3.421875 -6.046875 C 4.003906 -6.046875 4.523438 -5.914062 4.984375 -5.65625 C 5.453125 -5.40625 5.820312 -5.046875 6.09375 -4.578125 C 6.363281 -4.117188 6.5 -3.585938 6.5 -2.984375 C 6.5 -2.367188 6.359375 -1.828125 6.078125 -1.359375 C 5.804688 -0.898438 5.429688 -0.539062 4.953125 -0.28125 C 4.484375 -0.03125 3.960938 0.09375 3.390625 0.09375 Z M 3.390625 -1.21875 C 3.660156 -1.21875 3.914062 -1.28125 4.15625 -1.40625 C 4.394531 -1.539062 4.582031 -1.738281 4.71875 -2 C 4.863281 -2.269531 4.9375 -2.597656 4.9375 -2.984375 C 4.9375 -3.546875 4.785156 -3.976562 4.484375 -4.28125 C 4.191406 -4.582031 3.832031 -4.734375 3.40625 -4.734375 C 2.976562 -4.734375 2.617188 -4.582031 2.328125 -4.28125 C 2.035156 -3.976562 1.890625 -3.546875 1.890625 -2.984375 C 1.890625 -2.410156 2.03125 -1.972656 2.3125 -1.671875 C 2.59375 -1.367188 2.953125 -1.21875 3.390625 -1.21875 Z M 3.390625 -1.21875 "/></g></g></g><g fill="#b40c26" fill-opacity="1"><g transform="translate(15.840165, 25.049957)"><g><path d="M 2.125 -1.234375 L 4.765625 -1.234375 L 4.765625 0 L 0.40625 0 L 0.40625 -1.21875 L 3.015625 -4.71875 L 0.421875 -4.71875 L 0.421875 -5.953125 L 4.734375 -5.953125 L 4.734375 -4.734375 Z M 2.125 -1.234375 "/></g></g></g><g fill="#b40c26" fill-opacity="1"><g transform="translate(21.029441, 25.049957)"><g><path d="M 1.5 -6.671875 C 1.238281 -6.671875 1.019531 -6.753906 0.84375 -6.921875 C 0.664062 -7.085938 0.578125 -7.296875 0.578125 -7.546875 C 0.578125 -7.796875 0.664062 -8.003906 0.84375 -8.171875 C 1.019531 -8.335938 1.238281 -8.421875 1.5 -8.421875 C 1.769531 -8.421875 1.988281 -8.335938 2.15625 -8.171875 C 2.332031 -8.003906 2.421875 -7.796875 2.421875 -7.546875 C 2.421875 -7.296875 2.332031 -7.085938 2.15625 -6.921875 C 1.988281 -6.753906 1.769531 -6.671875 1.5 -6.671875 Z M 2.25 -5.953125 L 2.25 0 L 0.734375 0 L 0.734375 -5.953125 Z M 2.25 -5.953125 "/></g></g></g><g fill="#b40c26" fill-opacity="1"><g transform="translate(24.016237, 25.049957)"><g><path d="M 2.25 -7.953125 L 2.25 0 L 0.734375 0 L 0.734375 -7.953125 Z M 2.25 -7.953125 "/></g></g></g><g fill="#b40c26" fill-opacity="1"><g transform="translate(27.003033, 25.049957)"><g><path d="M 0.359375 -3 C 0.359375 -3.601562 0.476562 -4.132812 0.71875 -4.59375 C 0.957031 -5.0625 1.28125 -5.421875 1.6875 -5.671875 C 2.101562 -5.921875 2.566406 -6.046875 3.078125 -6.046875 C 3.515625 -6.046875 3.898438 -5.957031 4.234375 -5.78125 C 4.566406 -5.601562 4.835938 -5.378906 5.046875 -5.109375 L 5.046875 -5.953125 L 6.5625 -5.953125 L 6.5625 0 L 5.046875 0 L 5.046875 -0.875 C 4.847656 -0.59375 4.578125 -0.359375 4.234375 -0.171875 C 3.898438 0.00390625 3.507812 0.09375 3.0625 0.09375 C 2.5625 0.09375 2.101562 -0.03125 1.6875 -0.28125 C 1.28125 -0.539062 0.957031 -0.90625 0.71875 -1.375 C 0.476562 -1.84375 0.359375 -2.382812 0.359375 -3 Z M 5.046875 -2.984375 C 5.046875 -3.347656 4.972656 -3.660156 4.828125 -3.921875 C 4.679688 -4.179688 4.484375 -4.378906 4.234375 -4.515625 C 3.992188 -4.660156 3.738281 -4.734375 3.46875 -4.734375 C 3.1875 -4.734375 2.925781 -4.664062 2.6875 -4.53125 C 2.445312 -4.394531 2.253906 -4.191406 2.109375 -3.921875 C 1.960938 -3.660156 1.890625 -3.351562 1.890625 -3 C 1.890625 -2.644531 1.960938 -2.332031 2.109375 -2.0625 C 2.253906 -1.789062 2.445312 -1.582031 2.6875 -1.4375 C 2.925781 -1.289062 3.1875 -1.21875 3.46875 -1.21875 C 3.738281 -1.21875 3.992188 -1.285156 4.234375 -1.421875 C 4.484375 -1.566406 4.679688 -1.769531 4.828125 -2.03125 C 4.972656 -2.289062 5.046875 -2.609375 5.046875 -2.984375 Z M 5.046875 -2.984375 "/></g></g></g></g></g></g><g clip-path="url(#id4)"><g mask="url(#id5)"><g transform="matrix(1, 0, 0, 1, 2, 0.000000000000005692)"><g clip-path="url(#id7)"><g clip-path="url(#id6)"><path fill="#b40c26" d="M 37.449219 13.398438 L 37.023438 12.191406 C 36.789062 11.527344 36.054688 10.984375 35.394531 10.984375 L 33.882812 10.984375 C 32.761719 7.828125 31.402344 4.011719 30.976562 3.117188 C 30.355469 1.714844 28.378906 1.09375 27.296875 0.78125 C 27.296875 0.78125 25.472656 0.0820312 19.386719 0.0820312 C 13.304688 0.0820312 11.519531 0.78125 11.519531 0.78125 C 10.242188 1.210938 8.457031 1.832031 7.761719 3.15625 C 7.414062 3.820312 6.015625 7.710938 4.894531 10.984375 L 3.421875 10.984375 C 2.761719 10.984375 2.023438 11.527344 1.792969 12.191406 L 1.367188 13.398438 C 1.132812 14.058594 1.480469 14.605469 2.140625 14.605469 L 3.652344 14.605469 C 3.457031 15.148438 3.34375 15.460938 3.34375 15.460938 C 3.226562 15.65625 3.148438 16.550781 3.148438 16.824219 L 3.148438 27.84375 C 3.148438 28.542969 3.730469 29.128906 4.425781 29.128906 L 9.078125 29.128906 C 9.777344 29.128906 10.359375 28.542969 10.359375 27.84375 L 10.359375 25.507812 L 28.457031 25.507812 L 28.457031 27.84375 C 28.457031 28.542969 29.039062 29.128906 29.738281 29.128906 L 34.425781 29.128906 C 35.125 29.128906 35.707031 28.542969 35.707031 27.84375 L 35.707031 16.824219 C 35.707031 16.589844 35.628906 15.65625 35.511719 15.460938 C 35.511719 15.460938 35.394531 15.148438 35.203125 14.605469 L 36.675781 14.605469 C 37.292969 14.605469 37.644531 14.058594 37.449219 13.398438 Z M 10.359375 20.171875 L 8.808594 19.121094 C 5.9375 18.886719 5.589844 19.898438 4.96875 18.808594 L 4.96875 17.484375 C 4.96875 16.199219 5.707031 16.160156 6.519531 16.160156 C 7.296875 16.160156 8.847656 16.824219 9.894531 17.289062 C 11.015625 17.796875 11.832031 17.367188 12.257812 19.042969 C 12.21875 19.820312 11.792969 20.171875 10.359375 20.171875 Z M 7.644531 11.488281 C 8.613281 7.519531 10.242188 4.753906 10.472656 4.089844 C 10.628906 3.625 10.242188 2.765625 19.425781 2.765625 C 28.613281 2.765625 28.109375 4.011719 28.148438 4.050781 C 28.574219 4.949219 30.28125 7.867188 31.171875 11.488281 C 31.171875 11.488281 27.722656 11.957031 19.851562 11.957031 C 11.984375 11.957031 7.644531 11.488281 7.644531 11.488281 Z M 26.597656 19.042969 C 28.417969 16.785156 27.835938 17.796875 28.960938 17.289062 C 29.96875 16.824219 31.558594 16.160156 32.332031 16.160156 C 33.148438 16.160156 33.882812 16.199219 33.882812 17.484375 L 33.882812 18.808594 C 33.300781 19.859375 32.796875 18.925781 29.890625 19.199219 L 28.457031 20.132812 C 27.023438 20.171875 26.09375 19.625 26.597656 19.042969 Z M 26.597656 19.042969 " fill-opacity="1" fill-rule="nonzero"/></g></g></g></g></g></svg>