<svg xmlns="http://www.w3.org/2000/svg" xmlns:xlink="http://www.w3.org/1999/xlink" width="700" zoomAndPan="magnify" viewBox="0 0 525 525.000007" height="700" preserveAspectRatio="xMidYMid meet" version="1.0"><defs><clipPath id="id1"><path d="M 127 78.609375 L 284 78.609375 L 284 217 L 127 217 Z M 127 78.609375 " clip-rule="nonzero"/></clipPath><clipPath id="id2"><path d="M 418 243 L 488.976562 243 L 488.976562 349 L 418 349 Z M 418 243 " clip-rule="nonzero"/></clipPath><clipPath id="id3"><path d="M 36.089844 384 L 301 384 L 301 445.410156 L 36.089844 445.410156 Z M 36.089844 384 " clip-rule="nonzero"/></clipPath><clipPath id="id4"><path d="M 36.089844 226 L 301 226 L 301 380 L 36.089844 380 Z M 36.089844 226 " clip-rule="nonzero"/></clipPath></defs><path fill="#b40c26" d="M 224.800781 299.859375 C 221.308594 297.429688 217.082031 295.996094 212.527344 295.984375 C 207.828125 295.996094 203.488281 297.53125 199.9375 300.09375 C 203.480469 302.339844 207.671875 303.660156 212.179688 303.660156 C 216.847656 303.660156 221.179688 302.257812 224.800781 299.859375 Z M 224.800781 299.859375 " fill-opacity="1" fill-rule="nonzero"/><path fill="#b40c26" d="M 234.050781 287.582031 C 234.71875 285.425781 235.085938 283.132812 235.085938 280.757812 C 235.085938 268.105469 224.828125 257.851562 212.179688 257.851562 C 199.527344 257.851562 189.273438 268.109375 189.273438 280.757812 C 189.273438 283.28125 189.695312 285.703125 190.449219 287.972656 C 196.617188 283.371094 204.261719 280.640625 212.527344 280.636719 C 220.550781 280.640625 227.980469 283.21875 234.050781 287.582031 Z M 234.050781 287.582031 " fill-opacity="1" fill-rule="nonzero"/><path fill="#b40c26" d="M 271.460938 235.652344 L 438.335938 436.832031 L 481.742188 436.832031 L 277.929688 235.652344 Z M 271.460938 235.652344 " fill-opacity="1" fill-rule="nonzero"/><g clip-path="url(#id1)"><path fill="#b40c26" d="M 183.414062 81.035156 C 151.09375 88.242188 127.503906 110.785156 127.503906 137.503906 C 127.503906 155.042969 137.675781 170.804688 153.816406 181.589844 C 157.550781 184.085938 162.90625 197.273438 150 216.460938 C 154.363281 218.402344 174.910156 191.808594 179.761719 193.09375 C 187.84375 195.230469 196.535156 196.386719 205.589844 196.386719 C 248.710938 196.386719 283.679688 170.023438 283.679688 137.503906 C 283.679688 110.785156 260.082031 88.242188 227.765625 81.035156 C 220.734375 79.464844 213.296875 78.609375 205.59375 78.609375 C 197.882812 78.609375 190.445312 79.464844 183.414062 81.035156 Z M 273.96875 137.828125 C 273.96875 164.695312 243.507812 186.464844 205.925781 186.464844 C 168.339844 186.464844 137.875 164.695312 137.875 137.828125 C 137.875 110.964844 168.339844 89.195312 205.925781 89.195312 C 243.507812 89.195312 273.96875 110.964844 273.96875 137.828125 Z M 273.96875 137.828125 " fill-opacity="1" fill-rule="nonzero"/></g><g clip-path="url(#id2)"><path fill="#b40c26" d="M 460.941406 243.464844 L 445.566406 243.464844 L 428.441406 339.320312 L 418.34375 339.320312 L 418.34375 348.785156 L 488.167969 348.785156 L 488.167969 339.320312 L 478.066406 339.320312 Z M 460.941406 243.464844 " fill-opacity="1" fill-rule="nonzero"/></g><path fill="#b40c26" d="M 357.652344 186.976562 L 343.722656 264.953125 L 335.503906 264.953125 L 335.503906 272.652344 L 392.308594 272.652344 L 392.308594 264.953125 L 384.09375 264.953125 L 370.167969 186.976562 Z M 357.652344 186.976562 " fill-opacity="1" fill-rule="nonzero"/><g clip-path="url(#id3)"><path fill="#b40c26" d="M 289.925781 435.316406 L 289.925781 413.902344 L 300.050781 413.902344 L 300.050781 384.707031 L 36.882812 384.707031 L 36.882812 413.902344 L 47.003906 413.902344 L 47.003906 435.316406 C 47.003906 440.90625 51.523438 445.429688 57.132812 445.429688 L 77.355469 445.429688 C 82.957031 445.429688 87.488281 440.90625 87.488281 435.316406 L 87.488281 413.902344 L 249.441406 413.902344 L 249.441406 435.316406 C 249.441406 440.90625 253.964844 445.429688 259.558594 445.429688 L 279.800781 445.429688 C 285.398438 445.429688 289.925781 440.90625 289.925781 435.316406 Z M 289.925781 435.316406 " fill-opacity="1" fill-rule="nonzero"/></g><g clip-path="url(#id4)"><path fill="#b40c26" d="M 300.050781 327.539062 C 300.050781 327.539062 296.234375 326.277344 289.417969 324.375 L 256.875 237.550781 C 256.875 237.550781 189.304688 226.308594 168.476562 226.308594 C 147.640625 226.308594 80.070312 237.550781 80.070312 237.550781 L 47.523438 324.375 C 40.695312 326.277344 36.882812 327.539062 36.882812 327.539062 L 36.882812 379.089844 L 300.050781 379.089844 Z M 75.652344 367.820312 C 66.226562 367.820312 58.59375 360.1875 58.59375 350.765625 C 58.59375 341.34375 66.226562 333.707031 75.652344 333.707031 C 85.066406 333.707031 92.710938 341.339844 92.710938 350.765625 C 92.710938 360.183594 85.066406 367.820312 75.652344 367.820312 Z M 71.707031 317.390625 L 94.910156 255.625 C 110.402344 253.132812 152.84375 246.566406 168.476562 246.566406 C 184.097656 246.566406 226.546875 253.132812 242.03125 255.605469 L 265.191406 317.390625 C 265.191406 317.390625 258.988281 316.371094 249.398438 314.984375 C 248.265625 314.820312 247.085938 314.648438 245.863281 314.476562 C 244.277344 297.457031 229.964844 284.132812 212.527344 284.125 C 197.507812 284.132812 184.804688 294.011719 180.554688 307.628906 C 179.347656 307.566406 178.152344 307.519531 176.980469 307.476562 C 174.015625 307.367188 171.164062 307.304688 168.464844 307.304688 C 133.101562 307.304688 71.707031 317.390625 71.707031 317.390625 Z M 212.523438 292.5 C 224.917969 292.519531 235.167969 301.484375 237.234375 313.285156 C 236.042969 313.125 234.824219 312.964844 233.585938 312.800781 C 221.191406 311.179688 206.683594 309.492188 192.996094 308.421875 C 191.753906 308.324219 190.511719 308.234375 189.28125 308.148438 C 193.027344 298.980469 202.007812 292.515625 212.523438 292.5 Z M 261.273438 367.820312 C 251.863281 367.820312 244.222656 360.1875 244.222656 350.765625 C 244.222656 341.34375 251.863281 333.707031 261.273438 333.707031 C 270.703125 333.707031 278.335938 341.339844 278.335938 350.765625 C 278.335938 360.183594 270.703125 367.820312 261.273438 367.820312 Z M 261.273438 367.820312 " fill-opacity="1" fill-rule="nonzero"/></g><path fill="#b40c26" d="M 149.269531 280.753906 C 149.269531 281.503906 149.234375 282.253906 149.160156 283 C 149.085938 283.746094 148.976562 284.488281 148.832031 285.222656 C 148.683594 285.960938 148.503906 286.6875 148.285156 287.402344 C 148.066406 288.121094 147.8125 288.828125 147.527344 289.519531 C 147.238281 290.214844 146.917969 290.890625 146.566406 291.550781 C 146.210938 292.214844 145.828125 292.855469 145.410156 293.480469 C 144.992188 294.105469 144.546875 294.707031 144.070312 295.285156 C 143.59375 295.867188 143.09375 296.421875 142.5625 296.949219 C 142.03125 297.480469 141.476562 297.984375 140.894531 298.460938 C 140.316406 298.9375 139.714844 299.382812 139.089844 299.800781 C 138.46875 300.214844 137.824219 300.601562 137.164062 300.953125 C 136.5 301.308594 135.824219 301.628906 135.128906 301.914062 C 134.4375 302.203125 133.730469 302.457031 133.015625 302.671875 C 132.296875 302.890625 131.570312 303.074219 130.832031 303.21875 C 130.097656 303.367188 129.355469 303.476562 128.609375 303.550781 C 127.863281 303.621094 127.113281 303.660156 126.363281 303.660156 C 125.613281 303.660156 124.867188 303.621094 124.121094 303.550781 C 123.371094 303.476562 122.632812 303.367188 121.894531 303.21875 C 121.160156 303.074219 120.433594 302.890625 119.714844 302.671875 C 118.996094 302.457031 118.292969 302.203125 117.597656 301.914062 C 116.90625 301.628906 116.226562 301.308594 115.566406 300.953125 C 114.90625 300.601562 114.261719 300.214844 113.636719 299.800781 C 113.015625 299.382812 112.414062 298.9375 111.832031 298.460938 C 111.253906 297.984375 110.699219 297.480469 110.167969 296.949219 C 109.636719 296.421875 109.132812 295.867188 108.65625 295.285156 C 108.183594 294.707031 107.734375 294.105469 107.320312 293.480469 C 106.902344 292.855469 106.515625 292.214844 106.164062 291.550781 C 105.808594 290.890625 105.488281 290.214844 105.203125 289.519531 C 104.914062 288.828125 104.664062 288.121094 104.445312 287.402344 C 104.226562 286.6875 104.042969 285.960938 103.898438 285.222656 C 103.75 284.488281 103.640625 283.746094 103.570312 283 C 103.496094 282.253906 103.457031 281.503906 103.457031 280.753906 C 103.457031 280.003906 103.496094 279.257812 103.570312 278.511719 C 103.640625 277.761719 103.75 277.023438 103.898438 276.285156 C 104.042969 275.550781 104.226562 274.824219 104.445312 274.105469 C 104.664062 273.386719 104.914062 272.683594 105.203125 271.988281 C 105.488281 271.296875 105.808594 270.621094 106.164062 269.957031 C 106.515625 269.296875 106.902344 268.652344 107.320312 268.03125 C 107.734375 267.40625 108.183594 266.804688 108.65625 266.226562 C 109.132812 265.644531 109.636719 265.089844 110.167969 264.558594 C 110.699219 264.027344 111.253906 263.527344 111.832031 263.050781 C 112.414062 262.574219 113.015625 262.128906 113.636719 261.710938 C 114.261719 261.292969 114.90625 260.910156 115.566406 260.554688 C 116.226562 260.203125 116.90625 259.882812 117.597656 259.59375 C 118.292969 259.308594 118.996094 259.054688 119.714844 258.835938 C 120.433594 258.621094 121.160156 258.4375 121.894531 258.289062 C 122.632812 258.144531 123.371094 258.035156 124.121094 257.960938 C 124.867188 257.886719 125.613281 257.851562 126.363281 257.851562 C 127.113281 257.851562 127.863281 257.886719 128.609375 257.960938 C 129.355469 258.035156 130.097656 258.144531 130.832031 258.289062 C 131.570312 258.4375 132.296875 258.621094 133.015625 258.835938 C 133.730469 259.054688 134.4375 259.308594 135.128906 259.59375 C 135.824219 259.882812 136.5 260.203125 137.164062 260.554688 C 137.824219 260.910156 138.46875 261.292969 139.089844 261.710938 C 139.714844 262.128906 140.316406 262.574219 140.894531 263.050781 C 141.476562 263.527344 142.03125 264.027344 142.5625 264.558594 C 143.09375 265.089844 143.59375 265.644531 144.070312 266.226562 C 144.546875 266.804688 144.992188 267.40625 145.410156 268.03125 C 145.828125 268.652344 146.210938 269.296875 146.566406 269.957031 C 146.917969 270.621094 147.238281 271.296875 147.527344 271.988281 C 147.8125 272.683594 148.066406 273.386719 148.285156 274.105469 C 148.503906 274.824219 148.683594 275.550781 148.832031 276.285156 C 148.976562 277.023438 149.085938 277.761719 149.160156 278.511719 C 149.234375 279.257812 149.269531 280.003906 149.269531 280.753906 Z M 149.269531 280.753906 " fill-opacity="1" fill-rule="nonzero"/></svg>