<svg xmlns="http://www.w3.org/2000/svg" xmlns:xlink="http://www.w3.org/1999/xlink" width="700" zoomAndPan="magnify" viewBox="0 0 525 525.000007" height="700" preserveAspectRatio="xMidYMid meet" version="1.0"><defs><clipPath id="id1"><path d="M 120.226562 68 L 404.683594 68 L 404.683594 456 L 120.226562 456 Z M 120.226562 68 " clip-rule="nonzero"/></clipPath></defs><g clip-path="url(#id1)"><path fill="#b40c26" d="M 373.203125 105.429688 C 371.882812 84.488281 360.132812 68.5625 345.285156 68.5625 C 330.433594 68.5625 319.941406 82.769531 317.695312 102.0625 C 315.386719 82.769531 304.101562 68.5625 290.109375 68.5625 C 276.117188 68.5625 264.765625 82.769531 262.457031 102.0625 C 260.210938 82.769531 248.925781 68.5625 234.867188 68.5625 C 220.808594 68.5625 209.589844 82.769531 207.28125 102.0625 C 204.96875 82.769531 193.683594 68.5625 179.625 68.5625 C 165.566406 68.5625 153.226562 84.488281 151.773438 105.429688 C 150.703125 105.550781 149.640625 105.722656 148.585938 105.941406 C 147.53125 106.160156 146.488281 106.425781 145.457031 106.738281 C 144.425781 107.054688 143.410156 107.414062 142.414062 107.820312 C 141.414062 108.226562 140.4375 108.675781 139.480469 109.171875 C 138.523438 109.664062 137.589844 110.203125 136.679688 110.78125 C 135.773438 111.359375 134.894531 111.980469 134.039062 112.640625 C 133.1875 113.300781 132.367188 113.996094 131.578125 114.730469 C 130.789062 115.464844 130.035156 116.234375 129.316406 117.039062 C 128.597656 117.839844 127.914062 118.675781 127.269531 119.539062 C 126.628906 120.402344 126.023438 121.296875 125.460938 122.214844 C 124.898438 123.136719 124.378906 124.078125 123.902344 125.046875 C 123.425781 126.011719 122.992188 127 122.605469 128.007812 C 122.21875 129.011719 121.878906 130.035156 121.582031 131.070312 C 121.289062 132.109375 121.039062 133.15625 120.839844 134.21875 C 120.640625 135.277344 120.492188 136.34375 120.386719 137.417969 C 120.285156 138.492188 120.230469 139.566406 120.226562 140.644531 L 120.226562 420.121094 C 120.226562 421.289062 120.28125 422.453125 120.398438 423.613281 C 120.511719 424.773438 120.683594 425.925781 120.910156 427.070312 C 121.136719 428.214844 121.417969 429.34375 121.757812 430.460938 C 122.097656 431.574219 122.488281 432.671875 122.933594 433.75 C 123.378906 434.828125 123.878906 435.878906 124.425781 436.910156 C 124.976562 437.9375 125.574219 438.9375 126.222656 439.90625 C 126.867188 440.875 127.5625 441.8125 128.300781 442.714844 C 129.039062 443.617188 129.820312 444.480469 130.644531 445.304688 C 131.46875 446.128906 132.332031 446.910156 133.230469 447.648438 C 134.132812 448.390625 135.066406 449.085938 136.035156 449.730469 C 137.003906 450.378906 138.003906 450.980469 139.03125 451.527344 C 140.058594 452.078125 141.109375 452.578125 142.1875 453.023438 C 143.261719 453.46875 144.359375 453.863281 145.472656 454.199219 C 146.589844 454.539062 147.71875 454.820312 148.859375 455.050781 C 150.003906 455.277344 151.152344 455.449219 152.3125 455.5625 C 153.472656 455.675781 154.632812 455.734375 155.800781 455.734375 L 369.175781 455.734375 C 370.339844 455.734375 371.503906 455.675781 372.664062 455.5625 C 373.824219 455.449219 374.972656 455.277344 376.117188 455.050781 C 377.257812 454.820312 378.386719 454.539062 379.503906 454.199219 C 380.617188 453.863281 381.714844 453.46875 382.789062 453.023438 C 383.867188 452.578125 384.917969 452.078125 385.945312 451.527344 C 386.972656 450.980469 387.972656 450.378906 388.941406 449.730469 C 389.910156 449.085938 390.84375 448.390625 391.746094 447.648438 C 392.644531 446.910156 393.507812 446.128906 394.332031 445.304688 C 395.15625 444.480469 395.9375 443.617188 396.675781 442.714844 C 397.414062 441.8125 398.109375 440.875 398.753906 439.90625 C 399.402344 438.9375 400 437.9375 400.550781 436.910156 C 401.097656 435.878906 401.597656 434.828125 402.042969 433.75 C 402.488281 432.671875 402.878906 431.574219 403.21875 430.460938 C 403.558594 429.34375 403.839844 428.214844 404.066406 427.070312 C 404.292969 425.925781 404.464844 424.773438 404.578125 423.613281 C 404.691406 422.453125 404.75 421.289062 404.75 420.121094 L 404.75 140.644531 C 404.746094 139.566406 404.691406 138.492188 404.589844 137.417969 C 404.484375 136.34375 404.335938 135.277344 404.136719 134.21875 C 403.9375 133.15625 403.6875 132.109375 403.394531 131.070312 C 403.097656 130.035156 402.757812 129.011719 402.371094 128.007812 C 401.984375 127 401.550781 126.011719 401.074219 125.046875 C 400.597656 124.078125 400.078125 123.136719 399.515625 122.214844 C 398.953125 121.296875 398.347656 120.402344 397.703125 119.539062 C 397.0625 118.675781 396.378906 117.839844 395.660156 117.039062 C 394.941406 116.234375 394.1875 115.464844 393.398438 114.730469 C 392.609375 113.996094 391.789062 113.300781 390.9375 112.640625 C 390.082031 111.980469 389.203125 111.359375 388.292969 110.78125 C 387.386719 110.203125 386.453125 109.664062 385.496094 109.171875 C 384.539062 108.675781 383.5625 108.226562 382.5625 107.820312 C 381.566406 107.414062 380.550781 107.054688 379.519531 106.738281 C 378.488281 106.425781 377.445312 106.160156 376.390625 105.941406 C 375.335938 105.722656 374.273438 105.550781 373.203125 105.429688 Z M 330.171875 105.035156 C 331.425781 90.828125 338.617188 81.25 345.285156 81.25 C 351.949219 81.25 359.144531 90.828125 360.398438 105.035156 Z M 164.511719 105.035156 C 165.765625 90.828125 173.027344 81.25 179.625 81.25 C 186.226562 81.25 193.484375 90.828125 194.738281 105.035156 Z M 289.910156 81.25 C 296.511719 81.25 303.769531 90.828125 305.023438 105.035156 L 274.929688 105.035156 C 276.183594 90.828125 283.441406 81.25 290.109375 81.25 Z M 249.785156 105.035156 L 219.753906 105.035156 C 221.007812 90.828125 228.265625 81.25 234.867188 81.25 C 241.46875 81.25 248.792969 90.828125 249.980469 105.035156 Z M 249.253906 117.71875 C 247.078125 129.546875 240.609375 137.539062 234.667969 137.539062 C 233.4375 137.527344 232.25 137.289062 231.109375 136.820312 C 229.96875 136.351562 228.957031 135.6875 228.070312 134.832031 C 227.75 134.566406 227.410156 134.335938 227.046875 134.136719 C 226.6875 133.9375 226.308594 133.773438 225.914062 133.644531 C 225.523438 133.515625 225.121094 133.425781 224.710938 133.371094 C 224.300781 133.320312 223.890625 133.304688 223.476562 133.328125 C 223.066406 133.355469 222.65625 133.417969 222.257812 133.515625 C 221.855469 133.617188 221.46875 133.753906 221.09375 133.929688 C 220.71875 134.101562 220.363281 134.308594 220.027344 134.550781 C 219.691406 134.792969 219.378906 135.0625 219.09375 135.359375 C 218.832031 135.679688 218.601562 136.023438 218.40625 136.386719 C 218.210938 136.753906 218.046875 137.132812 217.921875 137.527344 C 217.796875 137.921875 217.707031 138.324219 217.660156 138.734375 C 217.609375 139.144531 217.597656 139.558594 217.625 139.96875 C 217.652344 140.382812 217.71875 140.789062 217.820312 141.191406 C 217.925781 141.59375 218.066406 141.980469 218.242188 142.355469 C 218.417969 142.726562 218.628906 143.082031 218.871094 143.417969 C 219.113281 143.753906 219.386719 144.0625 219.6875 144.347656 C 221.695312 146.199219 223.96875 147.632812 226.503906 148.648438 C 229.039062 149.660156 231.675781 150.1875 234.40625 150.226562 C 248.132812 150.226562 259.289062 136.617188 261.859375 117.984375 L 304.167969 117.984375 C 301.988281 129.808594 295.585938 137.804688 289.648438 137.804688 C 288.414062 137.785156 287.230469 137.542969 286.089844 137.074219 C 284.953125 136.609375 283.9375 135.949219 283.046875 135.097656 C 282.402344 134.792969 281.722656 134.597656 281.015625 134.515625 C 280.304688 134.429688 279.601562 134.460938 278.902344 134.605469 C 278.203125 134.753906 277.542969 135.003906 276.925781 135.363281 C 276.308594 135.722656 275.765625 136.171875 275.292969 136.707031 C 274.820312 137.242188 274.445312 137.839844 274.164062 138.496094 C 273.886719 139.15625 273.71875 139.839844 273.664062 140.554688 C 273.605469 141.265625 273.664062 141.96875 273.835938 142.664062 C 274.007812 143.355469 274.28125 144.007812 274.664062 144.609375 C 276.6875 146.457031 278.972656 147.890625 281.519531 148.902344 C 284.066406 149.914062 286.710938 150.445312 289.449219 150.492188 C 303.175781 150.492188 314.265625 136.878906 316.90625 118.25 L 359.210938 118.25 C 357.03125 130.074219 350.566406 138.070312 344.625 138.070312 C 343.394531 138.042969 342.210938 137.796875 341.074219 137.332031 C 339.933594 136.863281 338.917969 136.207031 338.023438 135.359375 C 336.839844 134.296875 335.457031 133.769531 333.867188 133.773438 C 333.253906 133.835938 332.660156 133.980469 332.085938 134.207031 C 331.515625 134.433594 330.984375 134.734375 330.496094 135.113281 C 330.007812 135.488281 329.578125 135.921875 329.210938 136.417969 C 328.847656 136.914062 328.554688 137.453125 328.339844 138.03125 C 328.121094 138.605469 327.988281 139.203125 327.9375 139.820312 C 327.890625 140.433594 327.925781 141.042969 328.046875 141.648438 C 328.167969 142.253906 328.371094 142.828125 328.652344 143.378906 C 328.933594 143.925781 329.285156 144.425781 329.707031 144.875 C 331.714844 146.726562 333.988281 148.160156 336.523438 149.175781 C 339.0625 150.1875 341.695312 150.714844 344.425781 150.753906 C 358.089844 150.753906 369.109375 137.539062 371.816406 118.84375 C 373.152344 119.050781 374.464844 119.371094 375.742188 119.8125 C 377.023438 120.25 378.257812 120.800781 379.4375 121.457031 C 380.621094 122.117188 381.738281 122.875 382.789062 123.730469 C 383.835938 124.585938 384.804688 125.527344 385.683594 126.554688 C 386.566406 127.582031 387.351562 128.679688 388.039062 129.847656 C 388.730469 131.011719 389.308594 132.230469 389.78125 133.5 C 390.253906 134.773438 390.609375 136.074219 390.851562 137.40625 C 391.09375 138.738281 391.214844 140.082031 391.21875 141.4375 L 391.21875 420.914062 C 391.21875 421.667969 391.183594 422.417969 391.109375 423.164062 C 391.035156 423.914062 390.925781 424.65625 390.78125 425.390625 C 390.632812 426.128906 390.453125 426.859375 390.234375 427.578125 C 390.015625 428.296875 389.765625 429.003906 389.476562 429.699219 C 389.191406 430.394531 388.871094 431.070312 388.519531 431.734375 C 388.164062 432.398438 387.78125 433.042969 387.363281 433.667969 C 386.945312 434.292969 386.5 434.898438 386.023438 435.480469 C 385.550781 436.058594 385.046875 436.617188 384.515625 437.148438 C 383.988281 437.683594 383.429688 438.1875 382.851562 438.664062 C 382.273438 439.140625 381.671875 439.589844 381.046875 440.007812 C 380.421875 440.429688 379.78125 440.816406 379.121094 441.171875 C 378.457031 441.527344 377.78125 441.847656 377.085938 442.136719 C 376.394531 442.425781 375.6875 442.683594 374.972656 442.902344 C 374.253906 443.121094 373.527344 443.304688 372.789062 443.453125 C 372.054688 443.601562 371.3125 443.714844 370.566406 443.789062 C 369.816406 443.867188 369.070312 443.90625 368.320312 443.90625 L 155.800781 443.90625 C 155.050781 443.90625 154.300781 443.867188 153.554688 443.789062 C 152.804688 443.714844 152.0625 443.601562 151.328125 443.453125 C 150.59375 443.304688 149.867188 443.121094 149.148438 442.902344 C 148.429688 442.683594 147.722656 442.425781 147.03125 442.136719 C 146.335938 441.847656 145.660156 441.527344 145 441.171875 C 144.335938 440.816406 143.695312 440.429688 143.070312 440.007812 C 142.449219 439.589844 141.847656 439.140625 141.265625 438.664062 C 140.6875 438.1875 140.132812 437.683594 139.601562 437.148438 C 139.070312 436.617188 138.570312 436.058594 138.09375 435.480469 C 137.617188 434.898438 137.171875 434.292969 136.753906 433.667969 C 136.339844 433.042969 135.953125 432.398438 135.601562 431.734375 C 135.246094 431.070312 134.925781 430.394531 134.640625 429.699219 C 134.351562 429.003906 134.101562 428.296875 133.882812 427.578125 C 133.664062 426.859375 133.484375 426.128906 133.335938 425.390625 C 133.191406 424.65625 133.082031 423.914062 133.007812 423.164062 C 132.933594 422.417969 132.898438 421.667969 132.898438 420.914062 L 132.898438 140.644531 C 132.898438 139.894531 132.9375 139.148438 133.015625 138.402344 C 133.089844 137.65625 133.199219 136.914062 133.347656 136.179688 C 133.496094 135.441406 133.679688 134.714844 133.898438 134 C 134.117188 133.28125 134.371094 132.574219 134.660156 131.882812 C 134.945312 131.191406 135.265625 130.511719 135.621094 129.851562 C 135.976562 129.191406 136.359375 128.546875 136.777344 127.925781 C 137.195312 127.300781 137.640625 126.699219 138.117188 126.121094 C 138.59375 125.539062 139.09375 124.984375 139.625 124.453125 C 140.15625 123.921875 140.710938 123.421875 141.289062 122.945312 C 141.867188 122.46875 142.46875 122.019531 143.089844 121.605469 C 143.714844 121.1875 144.355469 120.800781 145.015625 120.445312 C 145.675781 120.09375 146.355469 119.769531 147.046875 119.484375 C 147.738281 119.195312 148.441406 118.941406 149.160156 118.722656 C 149.875 118.503906 150.601562 118.320312 151.335938 118.171875 C 152.070312 118.023438 152.8125 117.910156 153.558594 117.835938 C 154.304688 117.761719 155.050781 117.722656 155.800781 117.71875 L 194.210938 117.71875 C 192.035156 129.546875 185.632812 137.539062 179.691406 137.539062 C 178.4375 137.496094 177.234375 137.222656 176.082031 136.722656 C 174.929688 136.21875 173.914062 135.523438 173.027344 134.632812 C 172.707031 134.375 172.371094 134.148438 172.007812 133.953125 C 171.648438 133.757812 171.273438 133.59375 170.886719 133.46875 C 170.496094 133.34375 170.097656 133.253906 169.691406 133.203125 C 169.285156 133.152344 168.875 133.136719 168.46875 133.160156 C 168.058594 133.1875 167.65625 133.246094 167.257812 133.347656 C 166.859375 133.445312 166.476562 133.582031 166.105469 133.753906 C 165.730469 133.925781 165.378906 134.128906 165.042969 134.363281 C 164.710938 134.601562 164.402344 134.867188 164.117188 135.164062 C 163.851562 135.480469 163.621094 135.820312 163.421875 136.183594 C 163.222656 136.546875 163.058594 136.925781 162.929688 137.316406 C 162.800781 137.710938 162.710938 138.113281 162.65625 138.523438 C 162.605469 138.933594 162.589844 139.347656 162.613281 139.757812 C 162.640625 140.171875 162.703125 140.578125 162.800781 140.980469 C 162.902344 141.382812 163.039062 141.769531 163.214844 142.144531 C 163.386719 142.519531 163.59375 142.878906 163.835938 143.214844 C 164.074219 143.550781 164.34375 143.863281 164.644531 144.148438 C 166.699219 146.007812 169.015625 147.4375 171.597656 148.4375 C 174.179688 149.441406 176.855469 149.949219 179.625 149.960938 C 193.355469 149.960938 204.441406 136.351562 207.082031 117.71875 Z M 249.253906 117.71875 " fill-opacity="1" fill-rule="nonzero"/></g><path fill="#b40c26" d="M 345.285156 356.101562 C 346.097656 356.101562 346.914062 356.058594 347.722656 355.980469 C 348.535156 355.898438 349.339844 355.78125 350.140625 355.621094 C 350.9375 355.460938 351.726562 355.265625 352.507812 355.027344 C 353.289062 354.789062 354.054688 354.515625 354.804688 354.203125 C 355.558594 353.890625 356.296875 353.542969 357.015625 353.160156 C 357.734375 352.773438 358.429688 352.355469 359.109375 351.902344 C 359.785156 351.449219 360.441406 350.964844 361.070312 350.445312 C 361.699219 349.929688 362.300781 349.382812 362.878906 348.804688 C 363.453125 348.226562 364 347.625 364.519531 346.992188 C 365.035156 346.363281 365.519531 345.707031 365.972656 345.03125 C 366.425781 344.351562 366.84375 343.652344 367.226562 342.933594 C 367.613281 342.214844 367.960938 341.476562 368.273438 340.722656 C 368.585938 339.96875 368.859375 339.203125 369.09375 338.421875 C 369.332031 337.640625 369.53125 336.851562 369.6875 336.050781 C 369.847656 335.25 369.964844 334.445312 370.046875 333.632812 C 370.125 332.820312 370.167969 332.007812 370.167969 331.191406 C 370.308594 330.699219 370.394531 330.195312 370.421875 329.683594 C 370.449219 329.171875 370.414062 328.664062 370.324219 328.160156 C 370.230469 327.65625 370.085938 327.167969 369.878906 326.699219 C 369.675781 326.226562 369.417969 325.789062 369.109375 325.378906 C 368.804688 324.96875 368.453125 324.597656 368.058594 324.269531 C 367.667969 323.941406 367.242188 323.660156 366.78125 323.433594 C 366.324219 323.203125 365.84375 323.03125 365.347656 322.910156 C 364.847656 322.792969 364.34375 322.734375 363.832031 322.734375 C 363.316406 322.734375 362.8125 322.792969 362.3125 322.910156 C 361.816406 323.03125 361.335938 323.203125 360.878906 323.433594 C 360.421875 323.660156 359.996094 323.941406 359.601562 324.269531 C 359.207031 324.597656 358.859375 324.96875 358.550781 325.378906 C 358.242188 325.789062 357.988281 326.226562 357.78125 326.699219 C 357.578125 327.167969 357.429688 327.65625 357.335938 328.160156 C 357.246094 328.664062 357.210938 329.171875 357.238281 329.683594 C 357.265625 330.195312 357.351562 330.699219 357.496094 331.191406 C 357.496094 331.996094 357.417969 332.789062 357.261719 333.578125 C 357.101562 334.363281 356.871094 335.128906 356.566406 335.871094 C 356.257812 336.609375 355.882812 337.316406 355.4375 337.984375 C 354.992188 338.648438 354.484375 339.265625 353.917969 339.835938 C 353.351562 340.402344 352.734375 340.910156 352.066406 341.355469 C 351.402344 341.800781 350.699219 342.175781 349.957031 342.484375 C 349.214844 342.792969 348.453125 343.023438 347.667969 343.179688 C 346.878906 343.335938 346.085938 343.414062 345.285156 343.414062 C 344.484375 343.414062 343.6875 343.335938 342.902344 343.179688 C 342.117188 343.023438 341.351562 342.792969 340.613281 342.484375 C 339.871094 342.175781 339.167969 341.800781 338.5 341.355469 C 337.835938 340.910156 337.21875 340.402344 336.652344 339.835938 C 336.082031 339.265625 335.578125 338.648438 335.132812 337.984375 C 334.6875 337.316406 334.3125 336.609375 334.003906 335.871094 C 333.695312 335.128906 333.464844 334.363281 333.308594 333.578125 C 333.152344 332.789062 333.074219 331.996094 333.074219 331.191406 C 333.074219 330.390625 333.152344 329.59375 333.308594 328.808594 C 333.464844 328.019531 333.695312 327.253906 334.003906 326.515625 C 334.3125 325.773438 334.6875 325.070312 335.132812 324.402344 C 335.578125 323.734375 336.082031 323.117188 336.652344 322.550781 C 337.21875 321.980469 337.835938 321.476562 338.5 321.027344 C 339.167969 320.582031 339.871094 320.207031 340.613281 319.898438 C 341.351562 319.59375 342.117188 319.359375 342.902344 319.203125 C 343.6875 319.046875 344.484375 318.96875 345.285156 318.96875 C 345.96875 318.769531 346.605469 318.464844 347.195312 318.058594 C 347.78125 317.652344 348.289062 317.164062 348.714844 316.589844 C 349.144531 316.019531 349.472656 315.394531 349.699219 314.714844 C 349.921875 314.039062 350.035156 313.339844 350.035156 312.625 C 350.035156 311.910156 349.921875 311.214844 349.699219 310.535156 C 349.472656 309.859375 349.144531 309.234375 348.714844 308.660156 C 348.289062 308.089844 347.78125 307.601562 347.195312 307.195312 C 346.605469 306.789062 345.96875 306.484375 345.285156 306.285156 C 344.46875 306.285156 343.65625 306.324219 342.847656 306.402344 C 342.035156 306.484375 341.230469 306.601562 340.429688 306.761719 C 339.632812 306.921875 338.839844 307.121094 338.0625 307.355469 C 337.28125 307.59375 336.515625 307.867188 335.761719 308.179688 C 335.011719 308.492188 334.273438 308.839844 333.554688 309.226562 C 332.835938 309.609375 332.136719 310.027344 331.460938 310.480469 C 330.785156 310.933594 330.128906 311.421875 329.5 311.9375 C 328.871094 312.453125 328.265625 313.003906 327.691406 313.578125 C 327.113281 314.15625 326.566406 314.757812 326.050781 315.390625 C 325.535156 316.019531 325.050781 316.675781 324.597656 317.355469 C 324.144531 318.03125 323.726562 318.730469 323.339844 319.449219 C 322.957031 320.167969 322.609375 320.90625 322.296875 321.660156 C 321.984375 322.414062 321.710938 323.179688 321.472656 323.960938 C 321.238281 324.742188 321.039062 325.53125 320.878906 326.332031 C 320.722656 327.132812 320.601562 327.9375 320.523438 328.75 C 320.441406 329.5625 320.402344 330.375 320.402344 331.191406 C 320.402344 332.007812 320.441406 332.820312 320.523438 333.632812 C 320.601562 334.445312 320.722656 335.25 320.878906 336.050781 C 321.039062 336.851562 321.238281 337.640625 321.472656 338.421875 C 321.710938 339.203125 321.984375 339.96875 322.296875 340.722656 C 322.609375 341.476562 322.957031 342.214844 323.339844 342.933594 C 323.726562 343.652344 324.144531 344.351562 324.597656 345.03125 C 325.050781 345.707031 325.535156 346.363281 326.050781 346.992188 C 326.566406 347.625 327.113281 348.226562 327.691406 348.804688 C 328.265625 349.382812 328.871094 349.929688 329.5 350.445312 C 330.128906 350.964844 330.785156 351.449219 331.460938 351.902344 C 332.136719 352.355469 332.835938 352.773438 333.554688 353.160156 C 334.273438 353.542969 335.011719 353.890625 335.761719 354.203125 C 336.515625 354.515625 337.28125 354.789062 338.0625 355.027344 C 338.839844 355.265625 339.632812 355.460938 340.429688 355.621094 C 341.230469 355.78125 342.035156 355.898438 342.847656 355.980469 C 343.65625 356.058594 344.46875 356.101562 345.285156 356.101562 Z M 345.285156 356.101562 " fill-opacity="1" fill-rule="nonzero"/><path fill="#b40c26" d="M 345.285156 223.300781 C 346.097656 223.300781 346.914062 223.257812 347.722656 223.179688 C 348.535156 223.101562 349.339844 222.980469 350.140625 222.820312 C 350.9375 222.660156 351.726562 222.464844 352.507812 222.226562 C 353.289062 221.988281 354.054688 221.714844 354.804688 221.402344 C 355.558594 221.089844 356.296875 220.742188 357.015625 220.359375 C 357.734375 219.972656 358.429688 219.554688 359.109375 219.101562 C 359.785156 218.648438 360.441406 218.164062 361.070312 217.644531 C 361.699219 217.128906 362.300781 216.582031 362.878906 216.003906 C 363.453125 215.425781 364 214.824219 364.519531 214.191406 C 365.035156 213.5625 365.519531 212.90625 365.972656 212.230469 C 366.425781 211.550781 366.84375 210.851562 367.226562 210.132812 C 367.613281 209.414062 367.960938 208.675781 368.273438 207.921875 C 368.585938 207.167969 368.859375 206.402344 369.09375 205.621094 C 369.332031 204.839844 369.53125 204.050781 369.6875 203.25 C 369.847656 202.449219 369.964844 201.644531 370.046875 200.832031 C 370.125 200.019531 370.167969 199.207031 370.167969 198.390625 C 370.308594 197.898438 370.394531 197.398438 370.421875 196.882812 C 370.449219 196.371094 370.414062 195.863281 370.324219 195.359375 C 370.230469 194.855469 370.085938 194.367188 369.878906 193.898438 C 369.675781 193.425781 369.417969 192.988281 369.109375 192.578125 C 368.804688 192.167969 368.453125 191.796875 368.058594 191.46875 C 367.664062 191.140625 367.242188 190.859375 366.78125 190.632812 C 366.324219 190.402344 365.84375 190.230469 365.347656 190.109375 C 364.847656 189.992188 364.34375 189.933594 363.832031 189.933594 C 363.316406 189.933594 362.8125 189.992188 362.3125 190.109375 C 361.816406 190.230469 361.335938 190.402344 360.878906 190.632812 C 360.421875 190.859375 359.996094 191.140625 359.601562 191.46875 C 359.207031 191.796875 358.859375 192.167969 358.550781 192.578125 C 358.242188 192.988281 357.988281 193.425781 357.78125 193.898438 C 357.578125 194.367188 357.429688 194.855469 357.335938 195.359375 C 357.246094 195.863281 357.210938 196.371094 357.238281 196.882812 C 357.265625 197.398438 357.351562 197.898438 357.496094 198.390625 C 357.496094 199.195312 357.417969 199.988281 357.261719 200.777344 C 357.101562 201.5625 356.871094 202.328125 356.566406 203.070312 C 356.257812 203.808594 355.882812 204.515625 355.4375 205.183594 C 354.992188 205.847656 354.484375 206.464844 353.917969 207.035156 C 353.351562 207.601562 352.734375 208.109375 352.066406 208.554688 C 351.402344 209 350.699219 209.375 349.957031 209.683594 C 349.214844 209.992188 348.453125 210.222656 347.667969 210.378906 C 346.878906 210.535156 346.085938 210.613281 345.285156 210.613281 C 344.484375 210.613281 343.6875 210.535156 342.902344 210.378906 C 342.117188 210.222656 341.351562 209.992188 340.613281 209.683594 C 339.871094 209.375 339.167969 209 338.5 208.554688 C 337.835938 208.109375 337.21875 207.601562 336.652344 207.035156 C 336.082031 206.464844 335.578125 205.847656 335.132812 205.183594 C 334.6875 204.515625 334.3125 203.808594 334.003906 203.070312 C 333.695312 202.328125 333.464844 201.5625 333.308594 200.777344 C 333.152344 199.988281 333.074219 199.195312 333.074219 198.390625 C 333.074219 197.589844 333.152344 196.792969 333.308594 196.007812 C 333.464844 195.21875 333.695312 194.457031 334.003906 193.714844 C 334.3125 192.972656 334.6875 192.269531 335.132812 191.601562 C 335.578125 190.933594 336.082031 190.316406 336.652344 189.75 C 337.21875 189.179688 337.835938 188.675781 338.5 188.226562 C 339.167969 187.78125 339.871094 187.40625 340.613281 187.097656 C 341.351562 186.792969 342.117188 186.558594 342.902344 186.402344 C 343.6875 186.246094 344.484375 186.167969 345.285156 186.167969 C 345.777344 186.3125 346.277344 186.398438 346.789062 186.421875 C 347.300781 186.449219 347.808594 186.417969 348.3125 186.324219 C 348.816406 186.234375 349.304688 186.085938 349.773438 185.878906 C 350.242188 185.675781 350.683594 185.417969 351.09375 185.109375 C 351.503906 184.804688 351.871094 184.453125 352.199219 184.058594 C 352.527344 183.664062 352.808594 183.238281 353.035156 182.78125 C 353.265625 182.320312 353.4375 181.84375 353.554688 181.34375 C 353.671875 180.84375 353.734375 180.339844 353.734375 179.824219 C 353.734375 179.3125 353.671875 178.808594 353.554688 178.308594 C 353.4375 177.808594 353.265625 177.328125 353.035156 176.871094 C 352.808594 176.410156 352.527344 175.984375 352.199219 175.59375 C 351.871094 175.199219 351.503906 174.847656 351.09375 174.539062 C 350.683594 174.230469 350.242188 173.976562 349.773438 173.769531 C 349.304688 173.566406 348.816406 173.417969 348.3125 173.324219 C 347.808594 173.234375 347.300781 173.199219 346.789062 173.226562 C 346.277344 173.253906 345.777344 173.339844 345.285156 173.484375 C 344.46875 173.480469 343.65625 173.523438 342.84375 173.601562 C 342.03125 173.679688 341.226562 173.800781 340.429688 173.957031 C 339.628906 174.117188 338.839844 174.316406 338.058594 174.550781 C 337.277344 174.789062 336.511719 175.0625 335.757812 175.375 C 335.003906 175.6875 334.269531 176.035156 333.546875 176.417969 C 332.828125 176.800781 332.128906 177.222656 331.453125 177.675781 C 330.773438 178.128906 330.121094 178.613281 329.488281 179.128906 C 328.859375 179.648438 328.257812 180.195312 327.679688 180.773438 C 327.101562 181.347656 326.554688 181.953125 326.039062 182.582031 C 325.519531 183.214844 325.035156 183.867188 324.582031 184.546875 C 324.128906 185.226562 323.710938 185.925781 323.324219 186.644531 C 322.941406 187.363281 322.59375 188.101562 322.28125 188.855469 C 321.96875 189.609375 321.695312 190.375 321.457031 191.15625 C 321.222656 191.9375 321.023438 192.730469 320.863281 193.53125 C 320.703125 194.332031 320.585938 195.136719 320.503906 195.949219 C 320.425781 196.761719 320.386719 197.574219 320.386719 198.390625 C 320.386719 199.207031 320.425781 200.019531 320.503906 200.832031 C 320.585938 201.644531 320.703125 202.453125 320.863281 203.253906 C 321.023438 204.054688 321.222656 204.84375 321.457031 205.625 C 321.695312 206.40625 321.96875 207.171875 322.28125 207.925781 C 322.59375 208.679688 322.941406 209.417969 323.324219 210.136719 C 323.710938 210.855469 324.128906 211.554688 324.582031 212.234375 C 325.035156 212.914062 325.519531 213.566406 326.039062 214.199219 C 326.554688 214.828125 327.101562 215.433594 327.679688 216.011719 C 328.257812 216.585938 328.859375 217.132812 329.488281 217.652344 C 330.121094 218.167969 330.773438 218.65625 331.453125 219.109375 C 332.128906 219.5625 332.828125 219.980469 333.546875 220.363281 C 334.269531 220.75 335.003906 221.097656 335.757812 221.410156 C 336.511719 221.71875 337.277344 221.996094 338.058594 222.230469 C 338.839844 222.46875 339.628906 222.664062 340.429688 222.824219 C 341.226562 222.984375 342.035156 223.101562 342.84375 223.179688 C 343.65625 223.261719 344.46875 223.300781 345.285156 223.300781 Z M 345.285156 223.300781 " fill-opacity="1" fill-rule="nonzero"/><path fill="#b40c26" d="M 301.527344 391.25 L 162.464844 391.25 C 161.972656 391.105469 161.472656 391.019531 160.960938 390.992188 C 160.449219 390.96875 159.941406 391 159.4375 391.089844 C 158.933594 391.183594 158.445312 391.332031 157.976562 391.539062 C 157.507812 391.742188 157.066406 392 156.65625 392.304688 C 156.246094 392.613281 155.878906 392.964844 155.550781 393.359375 C 155.222656 393.753906 154.945312 394.179688 154.714844 394.636719 C 154.484375 395.097656 154.3125 395.574219 154.195312 396.074219 C 154.078125 396.574219 154.019531 397.078125 154.019531 397.59375 C 154.019531 398.105469 154.078125 398.609375 154.195312 399.109375 C 154.3125 399.609375 154.484375 400.089844 154.714844 400.546875 C 154.945312 401.003906 155.222656 401.433594 155.550781 401.824219 C 155.878906 402.21875 156.246094 402.570312 156.65625 402.878906 C 157.066406 403.183594 157.507812 403.441406 157.976562 403.648438 C 158.445312 403.851562 158.933594 404 159.4375 404.09375 C 159.941406 404.183594 160.449219 404.21875 160.960938 404.191406 C 161.472656 404.164062 161.972656 404.078125 162.464844 403.933594 L 301.527344 403.933594 C 302.210938 403.734375 302.847656 403.429688 303.4375 403.023438 C 304.023438 402.617188 304.53125 402.128906 304.957031 401.554688 C 305.386719 400.984375 305.714844 400.359375 305.941406 399.679688 C 306.164062 399.003906 306.277344 398.308594 306.277344 397.59375 C 306.277344 396.878906 306.164062 396.179688 305.941406 395.503906 C 305.714844 394.824219 305.386719 394.199219 304.957031 393.628906 C 304.53125 393.054688 304.023438 392.566406 303.4375 392.160156 C 302.847656 391.753906 302.210938 391.449219 301.527344 391.25 Z M 301.527344 391.25 " fill-opacity="1" fill-rule="nonzero"/><path fill="#b40c26" d="M 301.527344 258.449219 L 162.464844 258.449219 C 161.972656 258.304688 161.472656 258.21875 160.960938 258.195312 C 160.449219 258.167969 159.941406 258.199219 159.4375 258.292969 C 158.933594 258.382812 158.445312 258.53125 157.976562 258.738281 C 157.507812 258.941406 157.066406 259.199219 156.65625 259.507812 C 156.246094 259.8125 155.878906 260.164062 155.550781 260.558594 C 155.222656 260.953125 154.945312 261.378906 154.714844 261.835938 C 154.484375 262.296875 154.3125 262.773438 154.195312 263.273438 C 154.078125 263.773438 154.019531 264.277344 154.019531 264.792969 C 154.019531 265.304688 154.078125 265.808594 154.195312 266.308594 C 154.3125 266.808594 154.484375 267.289062 154.714844 267.746094 C 154.945312 268.203125 155.222656 268.632812 155.550781 269.023438 C 155.878906 269.417969 156.246094 269.769531 156.65625 270.078125 C 157.066406 270.386719 157.507812 270.640625 157.976562 270.847656 C 158.445312 271.050781 158.933594 271.199219 159.4375 271.292969 C 159.941406 271.382812 160.449219 271.417969 160.960938 271.390625 C 161.472656 271.363281 161.972656 271.277344 162.464844 271.132812 L 301.527344 271.132812 C 302.210938 270.933594 302.847656 270.628906 303.4375 270.222656 C 304.023438 269.816406 304.53125 269.328125 304.957031 268.753906 C 305.386719 268.183594 305.714844 267.558594 305.941406 266.878906 C 306.164062 266.203125 306.277344 265.507812 306.277344 264.792969 C 306.277344 264.078125 306.164062 263.378906 305.941406 262.703125 C 305.714844 262.023438 305.386719 261.398438 304.957031 260.828125 C 304.53125 260.253906 304.023438 259.765625 303.4375 259.359375 C 302.847656 258.953125 302.210938 258.648438 301.527344 258.449219 Z M 301.527344 258.449219 " fill-opacity="1" fill-rule="nonzero"/><path fill="#b40c26" d="M 301.527344 324.847656 L 162.464844 324.847656 C 161.972656 324.707031 161.472656 324.621094 160.960938 324.59375 C 160.449219 324.566406 159.941406 324.601562 159.4375 324.691406 C 158.933594 324.78125 158.445312 324.929688 157.976562 325.136719 C 157.507812 325.34375 157.066406 325.597656 156.65625 325.90625 C 156.246094 326.214844 155.878906 326.566406 155.550781 326.957031 C 155.222656 327.351562 154.945312 327.777344 154.714844 328.238281 C 154.484375 328.695312 154.3125 329.175781 154.195312 329.675781 C 154.078125 330.171875 154.019531 330.679688 154.019531 331.191406 C 154.019531 331.703125 154.078125 332.210938 154.195312 332.710938 C 154.3125 333.207031 154.484375 333.6875 154.714844 334.148438 C 154.945312 334.605469 155.222656 335.03125 155.550781 335.425781 C 155.878906 335.820312 156.246094 336.167969 156.65625 336.476562 C 157.066406 336.785156 157.507812 337.042969 157.976562 337.246094 C 158.445312 337.453125 158.933594 337.601562 159.4375 337.691406 C 159.941406 337.785156 160.449219 337.816406 160.960938 337.789062 C 161.472656 337.761719 161.972656 337.679688 162.464844 337.535156 L 301.527344 337.535156 C 302.210938 337.335938 302.847656 337.03125 303.4375 336.625 C 304.023438 336.21875 304.53125 335.726562 304.957031 335.15625 C 305.386719 334.585938 305.714844 333.960938 305.941406 333.28125 C 306.164062 332.601562 306.277344 331.90625 306.277344 331.191406 C 306.277344 330.476562 306.164062 329.78125 305.941406 329.101562 C 305.714844 328.425781 305.386719 327.800781 304.957031 327.226562 C 304.53125 326.65625 304.023438 326.167969 303.4375 325.757812 C 302.847656 325.351562 302.210938 325.050781 301.527344 324.847656 Z M 301.527344 324.847656 " fill-opacity="1" fill-rule="nonzero"/><path fill="#b40c26" d="M 156.128906 198.390625 C 156.128906 198.824219 156.171875 199.253906 156.257812 199.679688 C 156.339844 200.105469 156.464844 200.519531 156.632812 200.917969 C 156.796875 201.320312 157 201.699219 157.242188 202.0625 C 157.484375 202.421875 157.757812 202.757812 158.0625 203.0625 C 158.371094 203.371094 158.703125 203.644531 159.0625 203.882812 C 159.421875 204.125 159.804688 204.328125 160.203125 204.496094 C 160.605469 204.660156 161.015625 204.785156 161.441406 204.871094 C 161.867188 204.957031 162.296875 205 162.730469 205 L 301.527344 205 C 302.210938 204.796875 302.847656 204.496094 303.4375 204.085938 C 304.023438 203.679688 304.53125 203.191406 304.957031 202.621094 C 305.386719 202.046875 305.714844 201.421875 305.941406 200.746094 C 306.164062 200.066406 306.277344 199.371094 306.277344 198.65625 C 306.277344 197.941406 306.164062 197.246094 305.941406 196.566406 C 305.714844 195.886719 305.386719 195.261719 304.957031 194.691406 C 304.53125 194.121094 304.023438 193.628906 303.4375 193.222656 C 302.847656 192.816406 302.210938 192.511719 301.527344 192.3125 L 162.464844 192.3125 C 162.066406 192.328125 161.667969 192.378906 161.277344 192.464844 C 160.886719 192.550781 160.503906 192.675781 160.136719 192.832031 C 159.765625 192.988281 159.414062 193.175781 159.078125 193.398438 C 158.746094 193.617188 158.433594 193.867188 158.140625 194.144531 C 157.851562 194.421875 157.589844 194.726562 157.355469 195.050781 C 157.121094 195.375 156.917969 195.71875 156.746094 196.082031 C 156.574219 196.445312 156.4375 196.820312 156.332031 197.207031 C 156.230469 197.597656 156.160156 197.992188 156.128906 198.390625 Z M 156.128906 198.390625 " fill-opacity="1" fill-rule="nonzero"/><path fill="#b40c26" d="M 345.285156 289.699219 C 346.097656 289.699219 346.914062 289.660156 347.722656 289.578125 C 348.535156 289.5 349.339844 289.378906 350.140625 289.222656 C 350.9375 289.0625 351.726562 288.863281 352.507812 288.628906 C 353.289062 288.390625 354.054688 288.117188 354.804688 287.804688 C 355.558594 287.492188 356.296875 287.144531 357.015625 286.757812 C 357.734375 286.375 358.429688 285.957031 359.109375 285.503906 C 359.785156 285.050781 360.441406 284.5625 361.070312 284.046875 C 361.699219 283.527344 362.300781 282.980469 362.878906 282.40625 C 363.453125 281.828125 364 281.222656 364.519531 280.59375 C 365.035156 279.960938 365.519531 279.308594 365.972656 278.628906 C 366.425781 277.953125 366.84375 277.253906 367.226562 276.535156 C 367.613281 275.8125 367.960938 275.078125 368.273438 274.324219 C 368.585938 273.570312 368.859375 272.800781 369.09375 272.023438 C 369.332031 271.242188 369.53125 270.449219 369.6875 269.652344 C 369.847656 268.851562 369.964844 268.042969 370.046875 267.234375 C 370.125 266.421875 370.167969 265.605469 370.167969 264.792969 C 369.964844 264.105469 369.664062 263.46875 369.257812 262.878906 C 368.851562 262.292969 368.363281 261.785156 367.789062 261.355469 C 367.21875 260.925781 366.59375 260.597656 365.917969 260.375 C 365.238281 260.148438 364.542969 260.035156 363.832031 260.035156 C 363.117188 260.035156 362.421875 260.148438 361.742188 260.375 C 361.066406 260.597656 360.441406 260.925781 359.871094 261.355469 C 359.300781 261.785156 358.808594 262.292969 358.402344 262.878906 C 357.996094 263.46875 357.695312 264.105469 357.496094 264.792969 C 357.496094 265.59375 357.417969 266.390625 357.261719 267.175781 C 357.101562 267.964844 356.871094 268.726562 356.566406 269.46875 C 356.257812 270.210938 355.882812 270.914062 355.4375 271.582031 C 354.992188 272.25 354.484375 272.867188 353.917969 273.433594 C 353.351562 274 352.734375 274.507812 352.066406 274.953125 C 351.402344 275.402344 350.699219 275.777344 349.957031 276.085938 C 349.214844 276.390625 348.453125 276.621094 347.667969 276.78125 C 346.878906 276.9375 346.085938 277.015625 345.285156 277.015625 C 344.484375 277.015625 343.6875 276.9375 342.902344 276.78125 C 342.117188 276.621094 341.351562 276.390625 340.613281 276.085938 C 339.871094 275.777344 339.167969 275.402344 338.5 274.953125 C 337.835938 274.507812 337.21875 274 336.652344 273.433594 C 336.082031 272.867188 335.578125 272.25 335.132812 271.582031 C 334.6875 270.914062 334.3125 270.210938 334.003906 269.46875 C 333.695312 268.726562 333.464844 267.964844 333.308594 267.175781 C 333.152344 266.390625 333.074219 265.59375 333.074219 264.792969 C 333.074219 263.988281 333.152344 263.195312 333.308594 262.40625 C 333.464844 261.621094 333.695312 260.855469 334.003906 260.113281 C 334.3125 259.371094 334.6875 258.667969 335.132812 258 C 335.578125 257.332031 336.082031 256.714844 336.652344 256.148438 C 337.21875 255.582031 337.835938 255.074219 338.5 254.628906 C 339.167969 254.183594 339.871094 253.804688 340.613281 253.5 C 341.351562 253.191406 342.117188 252.960938 342.902344 252.804688 C 343.6875 252.648438 344.484375 252.570312 345.285156 252.570312 C 345.96875 252.367188 346.605469 252.066406 347.195312 251.65625 C 347.78125 251.25 348.289062 250.761719 348.714844 250.191406 C 349.144531 249.617188 349.472656 248.992188 349.699219 248.316406 C 349.921875 247.636719 350.035156 246.941406 350.035156 246.226562 C 350.035156 245.511719 349.921875 244.816406 349.699219 244.136719 C 349.472656 243.457031 349.144531 242.832031 348.714844 242.261719 C 348.289062 241.691406 347.78125 241.199219 347.195312 240.792969 C 346.605469 240.386719 345.96875 240.082031 345.285156 239.882812 C 344.46875 239.882812 343.65625 239.925781 342.847656 240.003906 C 342.035156 240.085938 341.230469 240.207031 340.433594 240.363281 C 339.632812 240.523438 338.84375 240.722656 338.066406 240.960938 C 337.285156 241.195312 336.519531 241.472656 335.769531 241.785156 C 335.015625 242.097656 334.28125 242.445312 333.5625 242.828125 C 332.84375 243.214844 332.144531 243.632812 331.46875 244.085938 C 330.792969 244.539062 330.140625 245.027344 329.507812 245.542969 C 328.878906 246.0625 328.277344 246.609375 327.703125 247.183594 C 327.125 247.761719 326.578125 248.363281 326.0625 248.996094 C 325.546875 249.625 325.0625 250.28125 324.609375 250.957031 C 324.15625 251.636719 323.738281 252.335938 323.355469 253.054688 C 322.972656 253.773438 322.625 254.511719 322.3125 255.261719 C 322 256.015625 321.726562 256.785156 321.492188 257.5625 C 321.253906 258.34375 321.054688 259.132812 320.898438 259.933594 C 320.738281 260.734375 320.621094 261.539062 320.539062 262.351562 C 320.460938 263.164062 320.421875 263.976562 320.421875 264.792969 C 320.421875 265.605469 320.460938 266.421875 320.539062 267.230469 C 320.621094 268.042969 320.738281 268.847656 320.898438 269.648438 C 321.054688 270.449219 321.253906 271.238281 321.492188 272.019531 C 321.726562 272.800781 322 273.566406 322.3125 274.320312 C 322.625 275.074219 322.972656 275.808594 323.355469 276.527344 C 323.738281 277.246094 324.15625 277.945312 324.609375 278.625 C 325.0625 279.300781 325.546875 279.957031 326.0625 280.585938 C 326.578125 281.21875 327.125 281.820312 327.703125 282.398438 C 328.277344 282.976562 328.878906 283.523438 329.507812 284.039062 C 330.140625 284.558594 330.792969 285.042969 331.46875 285.496094 C 332.144531 285.949219 332.84375 286.367188 333.5625 286.753906 C 334.28125 287.136719 335.015625 287.488281 335.769531 287.800781 C 336.519531 288.113281 337.285156 288.386719 338.066406 288.625 C 338.84375 288.859375 339.632812 289.058594 340.433594 289.21875 C 341.230469 289.378906 342.035156 289.496094 342.847656 289.578125 C 343.65625 289.660156 344.46875 289.699219 345.285156 289.699219 Z M 345.285156 289.699219 " fill-opacity="1" fill-rule="nonzero"/><path fill="#b40c26" d="M 345.285156 422.5 C 346.097656 422.5 346.914062 422.460938 347.722656 422.378906 C 348.535156 422.300781 349.339844 422.179688 350.140625 422.023438 C 350.9375 421.863281 351.726562 421.664062 352.507812 421.429688 C 353.289062 421.191406 354.054688 420.917969 354.804688 420.605469 C 355.558594 420.292969 356.296875 419.945312 357.015625 419.558594 C 357.734375 419.175781 358.429688 418.757812 359.109375 418.300781 C 359.785156 417.847656 360.441406 417.363281 361.070312 416.847656 C 361.699219 416.328125 362.300781 415.78125 362.878906 415.203125 C 363.453125 414.628906 364 414.023438 364.519531 413.394531 C 365.035156 412.761719 365.519531 412.109375 365.972656 411.429688 C 366.425781 410.753906 366.84375 410.054688 367.226562 409.332031 C 367.613281 408.613281 367.960938 407.878906 368.273438 407.125 C 368.585938 406.371094 368.859375 405.601562 369.09375 404.824219 C 369.332031 404.042969 369.53125 403.25 369.6875 402.453125 C 369.847656 401.652344 369.964844 400.84375 370.046875 400.035156 C 370.125 399.222656 370.167969 398.40625 370.167969 397.59375 C 370.308594 397.101562 370.394531 396.597656 370.421875 396.085938 C 370.449219 395.574219 370.414062 395.066406 370.324219 394.558594 C 370.230469 394.054688 370.085938 393.570312 369.878906 393.097656 C 369.675781 392.628906 369.417969 392.1875 369.109375 391.777344 C 368.804688 391.367188 368.453125 391 368.058594 390.667969 C 367.667969 390.339844 367.242188 390.0625 366.78125 389.832031 C 366.324219 389.601562 365.84375 389.429688 365.347656 389.3125 C 364.847656 389.195312 364.34375 389.136719 363.832031 389.136719 C 363.316406 389.136719 362.8125 389.195312 362.3125 389.3125 C 361.816406 389.429688 361.335938 389.601562 360.878906 389.832031 C 360.421875 390.0625 359.996094 390.339844 359.601562 390.667969 C 359.207031 391 358.859375 391.367188 358.550781 391.777344 C 358.242188 392.1875 357.988281 392.628906 357.78125 393.097656 C 357.578125 393.570312 357.429688 394.054688 357.335938 394.558594 C 357.246094 395.066406 357.210938 395.574219 357.238281 396.085938 C 357.265625 396.597656 357.351562 397.101562 357.496094 397.59375 C 357.488281 398.394531 357.40625 399.1875 357.246094 399.972656 C 357.085938 400.757812 356.851562 401.519531 356.542969 402.257812 C 356.230469 403 355.851562 403.699219 355.40625 404.363281 C 354.957031 405.027344 354.449219 405.644531 353.878906 406.207031 C 353.3125 406.773438 352.691406 407.277344 352.023438 407.71875 C 351.355469 408.160156 350.652344 408.535156 349.910156 408.835938 C 349.171875 409.140625 348.40625 409.371094 347.621094 409.523438 C 346.835938 409.675781 346.042969 409.75 345.242188 409.75 C 344.441406 409.746094 343.648438 409.664062 342.863281 409.507812 C 342.078125 409.347656 341.316406 409.113281 340.578125 408.804688 C 339.839844 408.496094 339.136719 408.117188 338.472656 407.667969 C 337.808594 407.222656 337.191406 406.714844 336.628906 406.144531 C 336.0625 405.578125 335.558594 404.960938 335.117188 404.292969 C 334.671875 403.625 334.296875 402.917969 333.992188 402.179688 C 333.6875 401.4375 333.460938 400.671875 333.304688 399.886719 C 333.148438 399.101562 333.074219 398.304688 333.074219 397.503906 C 333.078125 396.703125 333.15625 395.910156 333.3125 395.121094 C 333.472656 394.335938 333.703125 393.574219 334.011719 392.832031 C 334.316406 392.09375 334.695312 391.390625 335.140625 390.722656 C 335.585938 390.058594 336.09375 389.441406 336.660156 388.875 C 337.226562 388.308594 337.84375 387.804688 338.507812 387.359375 C 339.175781 386.914062 339.878906 386.539062 340.617188 386.230469 C 341.355469 385.925781 342.121094 385.695312 342.90625 385.539062 C 343.691406 385.382812 344.484375 385.304688 345.285156 385.304688 C 345.777344 385.457031 346.285156 385.550781 346.800781 385.585938 C 347.316406 385.621094 347.828125 385.59375 348.339844 385.507812 C 348.847656 385.421875 349.339844 385.277344 349.816406 385.078125 C 350.292969 384.875 350.738281 384.621094 351.15625 384.3125 C 351.574219 384.007812 351.949219 383.65625 352.28125 383.261719 C 352.617188 382.863281 352.898438 382.4375 353.132812 381.972656 C 353.367188 381.511719 353.542969 381.027344 353.664062 380.527344 C 353.78125 380.023438 353.84375 379.511719 353.84375 378.992188 C 353.84375 378.476562 353.78125 377.964844 353.664062 377.460938 C 353.542969 376.957031 353.367188 376.476562 353.132812 376.011719 C 352.898438 375.550781 352.617188 375.121094 352.28125 374.726562 C 351.949219 374.332031 351.574219 373.980469 351.15625 373.671875 C 350.738281 373.367188 350.292969 373.113281 349.816406 372.910156 C 349.339844 372.707031 348.847656 372.5625 348.339844 372.476562 C 347.828125 372.390625 347.316406 372.367188 346.800781 372.402344 C 346.285156 372.4375 345.777344 372.53125 345.285156 372.683594 C 344.46875 372.683594 343.65625 372.722656 342.847656 372.804688 C 342.035156 372.882812 341.230469 373.003906 340.429688 373.164062 C 339.632812 373.320312 338.839844 373.519531 338.0625 373.757812 C 337.28125 373.992188 336.515625 374.269531 335.761719 374.578125 C 335.011719 374.890625 334.273438 375.242188 333.554688 375.625 C 332.835938 376.007812 332.136719 376.429688 331.460938 376.882812 C 330.785156 377.335938 330.128906 377.820312 329.5 378.335938 C 328.871094 378.855469 328.265625 379.402344 327.691406 379.980469 C 327.113281 380.554688 326.566406 381.160156 326.050781 381.789062 C 325.535156 382.421875 325.050781 383.074219 324.597656 383.753906 C 324.144531 384.433594 323.726562 385.132812 323.339844 385.851562 C 322.957031 386.570312 322.609375 387.304688 322.296875 388.058594 C 321.984375 388.8125 321.710938 389.582031 321.472656 390.363281 C 321.238281 391.140625 321.039062 391.933594 320.878906 392.734375 C 320.722656 393.53125 320.601562 394.339844 320.523438 395.152344 C 320.441406 395.960938 320.402344 396.777344 320.402344 397.59375 C 320.402344 398.40625 320.441406 399.222656 320.523438 400.035156 C 320.601562 400.84375 320.722656 401.652344 320.878906 402.453125 C 321.039062 403.25 321.238281 404.042969 321.472656 404.824219 C 321.710938 405.601562 321.984375 406.371094 322.296875 407.125 C 322.609375 407.878906 322.957031 408.613281 323.339844 409.332031 C 323.726562 410.054688 324.144531 410.753906 324.597656 411.429688 C 325.050781 412.109375 325.535156 412.761719 326.050781 413.394531 C 326.566406 414.023438 327.113281 414.628906 327.691406 415.203125 C 328.265625 415.78125 328.871094 416.328125 329.5 416.847656 C 330.128906 417.363281 330.785156 417.847656 331.460938 418.300781 C 332.136719 418.757812 332.835938 419.175781 333.554688 419.558594 C 334.273438 419.945312 335.011719 420.292969 335.761719 420.605469 C 336.515625 420.917969 337.28125 421.191406 338.0625 421.429688 C 338.839844 421.664062 339.632812 421.863281 340.429688 422.023438 C 341.230469 422.179688 342.035156 422.300781 342.847656 422.378906 C 343.65625 422.460938 344.46875 422.5 345.285156 422.5 Z M 345.285156 422.5 " fill-opacity="1" fill-rule="nonzero"/></svg>