<svg xmlns="http://www.w3.org/2000/svg" xmlns:xlink="http://www.w3.org/1999/xlink" width="700" zoomAndPan="magnify" viewBox="0 0 525 525.000007" height="700" preserveAspectRatio="xMidYMid meet" version="1.0"><defs><clipPath id="id1"><path d="M 0.5 0 L 524.5 0 L 524.5 524 L 0.5 524 Z M 0.5 0 " clip-rule="nonzero"/></clipPath><clipPath id="id2"><path d="M 74.335938 102.296875 L 450.867188 102.296875 L 450.867188 361 L 74.335938 361 Z M 74.335938 102.296875 " clip-rule="nonzero"/></clipPath><clipPath id="id3"><path d="M 163.121094 395 L 362 395 L 362 421.9375 L 163.121094 421.9375 Z M 163.121094 395 " clip-rule="nonzero"/></clipPath></defs><g clip-path="url(#id1)"><path fill="#ffffff" d="M 0.5 0 L 524.5 0 L 524.5 531.488281 L 0.5 531.488281 Z M 0.5 0 " fill-opacity="1" fill-rule="nonzero"/><path fill="#ffffff" d="M 0.5 0 L 524.5 0 L 524.5 524 L 0.5 524 Z M 0.5 0 " fill-opacity="1" fill-rule="nonzero"/><path fill="#ffffff" d="M 0.5 0 L 524.5 0 L 524.5 524 L 0.5 524 Z M 0.5 0 " fill-opacity="1" fill-rule="nonzero"/></g><g clip-path="url(#id2)"><path fill="#b40c26" d="M 426.175781 334.535156 C 426.175781 335.027344 425.851562 335.355469 425.527344 335.355469 L 99.675781 335.355469 C 99.351562 335.355469 99.027344 335.027344 99.027344 334.535156 L 99.027344 127.71875 C 99.027344 127.386719 99.351562 127.0625 99.675781 127.0625 L 425.527344 127.0625 C 425.851562 127.0625 426.175781 127.386719 426.175781 127.71875 Z M 425.527344 102.296875 L 99.675781 102.296875 C 85.875 102.296875 74.511719 113.773438 74.511719 127.71875 L 74.511719 334.535156 C 74.511719 348.640625 85.875 360.121094 99.675781 360.121094 L 425.527344 360.121094 C 439.488281 360.121094 450.691406 348.640625 450.691406 334.535156 L 450.691406 127.71875 C 450.691406 113.773438 439.488281 102.296875 425.527344 102.296875 " fill-opacity="1" fill-rule="nonzero"/></g><path fill="#b40c26" d="M 206.828125 365.042969 L 206.828125 390.460938 L 318.53125 390.460938 L 318.53125 365.042969 L 206.828125 365.042969 " fill-opacity="1" fill-rule="nonzero"/><g clip-path="url(#id3)"><path fill="#b40c26" d="M 335.09375 395.382812 L 190.109375 395.382812 C 175.65625 395.382812 163.808594 407.355469 163.808594 421.953125 L 361.394531 421.953125 C 361.394531 407.355469 349.542969 395.382812 335.09375 395.382812 " fill-opacity="1" fill-rule="nonzero"/></g><path fill="#b40c26" d="M 177.28125 288.773438 C 173.546875 292.710938 168.191406 295.171875 162.183594 295.171875 C 156.339844 295.171875 150.980469 292.710938 147.085938 288.773438 C 143.191406 284.839844 140.75 279.429688 140.75 273.523438 C 140.75 267.453125 143.191406 262.042969 147.085938 258.105469 C 150.980469 254.335938 156.339844 251.871094 162.183594 251.871094 C 168.027344 251.871094 173.386719 254.335938 177.28125 258.269531 C 181.179688 262.042969 183.617188 267.453125 183.617188 273.523438 C 183.617188 279.429688 181.179688 284.839844 177.28125 288.773438 Z M 162.183594 239.410156 C 152.925781 239.410156 144.484375 243.34375 138.480469 249.414062 L 138.316406 249.414062 C 132.308594 255.644531 128.578125 264.171875 128.578125 273.523438 C 128.578125 282.875 132.308594 291.402344 138.316406 297.46875 C 144.484375 303.699219 152.925781 307.472656 162.183594 307.472656 C 171.4375 307.472656 179.878906 303.699219 185.886719 297.46875 L 186.046875 297.46875 C 192.058594 291.402344 195.789062 282.875 195.789062 273.523438 C 195.789062 264.171875 192.058594 255.644531 186.046875 249.414062 C 179.878906 243.34375 171.4375 239.410156 162.183594 239.410156 " fill-opacity="1" fill-rule="nonzero"/><path fill="#b40c26" d="M 225.5 265.320312 L 390.621094 265.320312 L 390.621094 252.859375 L 225.5 252.859375 L 225.5 265.320312 " fill-opacity="1" fill-rule="nonzero"/><path fill="#b40c26" d="M 177.28125 204.144531 C 173.546875 208.085938 168.191406 210.542969 162.183594 210.542969 C 156.339844 210.542969 150.980469 208.085938 147.085938 204.144531 C 143.191406 200.210938 140.75 194.796875 140.75 188.894531 C 140.75 182.824219 143.191406 177.414062 147.085938 173.640625 C 150.980469 169.703125 156.339844 167.242188 162.183594 167.242188 C 168.027344 167.242188 173.386719 169.703125 177.28125 173.640625 C 181.179688 177.578125 183.617188 182.824219 183.617188 188.894531 C 183.617188 194.796875 181.179688 200.210938 177.28125 204.144531 Z M 162.183594 154.945312 C 152.925781 154.945312 144.484375 158.714844 138.480469 164.785156 L 138.316406 164.785156 C 132.308594 171.015625 128.578125 179.546875 128.578125 188.894531 C 128.578125 198.246094 132.308594 206.769531 138.316406 212.839844 C 144.484375 219.070312 152.925781 222.84375 162.183594 222.84375 C 171.4375 222.84375 179.878906 219.070312 185.886719 212.839844 L 186.046875 212.839844 C 192.058594 206.769531 195.789062 198.246094 195.789062 188.894531 C 195.789062 179.546875 192.058594 171.015625 186.046875 164.785156 C 179.878906 158.714844 171.4375 154.945312 162.183594 154.945312 " fill-opacity="1" fill-rule="nonzero"/><path fill="#b40c26" d="M 225.5 209.394531 L 390.621094 209.394531 L 390.621094 197.09375 L 225.5 197.09375 L 225.5 209.394531 " fill-opacity="1" fill-rule="nonzero"/><path fill="#b40c26" d="M 225.5 180.691406 L 390.621094 180.691406 L 390.621094 168.230469 L 225.5 168.230469 L 225.5 180.691406 " fill-opacity="1" fill-rule="nonzero"/><path fill="#b40c26" d="M 225.5 294.027344 L 390.621094 294.027344 L 390.621094 281.722656 L 225.5 281.722656 L 225.5 294.027344 " fill-opacity="1" fill-rule="nonzero"/></svg>