<svg xmlns="http://www.w3.org/2000/svg" xmlns:xlink="http://www.w3.org/1999/xlink" width="700" zoomAndPan="magnify" viewBox="0 0 525 525.000007" height="700" preserveAspectRatio="xMidYMid meet" version="1.0"><defs><clipPath id="id1"><path d="M 76.753906 144 L 448.042969 144 L 448.042969 428 L 76.753906 428 Z M 76.753906 144 " clip-rule="nonzero"/></clipPath></defs><g clip-path="url(#id1)"><path fill="#b40c26" d="M 439.359375 144.074219 L 85.515625 144.074219 C 80.691406 144.074219 76.789062 147.972656 76.789062 152.804688 L 76.789062 352.546875 C 76.789062 357.375 80.6875 361.464844 85.515625 361.464844 L 215.46875 361.464844 C 216.296875 332.261719 210.867188 315.160156 230.136719 295.875 C 238.875 290.453125 250.367188 278.589844 274.132812 284.539062 C 275.683594 284.800781 280.691406 286.570312 283.785156 288.257812 L 283.96875 288.257812 C 299.007812 296.25 309.40625 311.667969 309.40625 329.878906 L 309.40625 361.464844 L 439.359375 361.464844 C 444.183594 361.464844 448.085938 357.378906 448.085938 352.550781 L 448.085938 152.808594 C 448.085938 147.972656 444.1875 144.074219 439.359375 144.074219 Z M 348.765625 269.867188 L 176.113281 269.867188 C 172.03125 269.867188 168.6875 266.519531 168.6875 262.433594 C 168.6875 258.347656 172.03125 255.003906 176.113281 255.003906 L 348.765625 255.003906 C 352.851562 255.003906 356.1875 258.347656 356.1875 262.433594 C 356.191406 266.519531 352.847656 269.867188 348.765625 269.867188 Z M 348.765625 232.144531 L 176.113281 232.144531 C 172.03125 232.144531 168.6875 228.796875 168.6875 224.714844 C 168.6875 220.625 172.03125 217.28125 176.113281 217.28125 L 348.765625 217.28125 C 352.851562 217.28125 356.1875 220.625 356.1875 224.714844 C 356.191406 228.796875 352.847656 232.144531 348.765625 232.144531 Z M 348.765625 194.242188 L 176.113281 194.242188 C 172.03125 194.242188 168.6875 190.894531 168.6875 186.808594 C 168.6875 182.722656 172.03125 179.378906 176.113281 179.378906 L 348.765625 179.378906 C 352.851562 179.378906 356.1875 182.71875 356.1875 186.808594 C 356.191406 190.898438 352.847656 194.242188 348.765625 194.242188 Z M 293.8125 330.996094 C 293.253906 347.902344 279.519531 361.46875 262.4375 361.46875 C 238.933594 361.46875 220.632812 335.183594 237.171875 311.375 C 240.523438 306.554688 245.894531 301.164062 257.425781 298.847656 C 277.078125 295.570312 293.308594 311.605469 293.8125 330.996094 Z M 293.628906 421.488281 C 293.628906 421.628906 293.628906 421.796875 293.625 422.039062 C 294.738281 425.941406 290.46875 428.726562 287.3125 426.5 C 255.644531 406.03125 269.117188 406.019531 237.375 426.871094 C 234.410156 429.101562 230.136719 426.128906 231.066406 422.410156 C 231.066406 422.410156 231.066406 422.40625 231.066406 422.40625 C 231.0625 422.171875 231.0625 422.003906 231.0625 421.867188 C 231.054688 419.511719 231.019531 408.238281 230.878906 364.808594 C 250.25 380.316406 272.574219 381.957031 293.996094 364.808594 C 293.71875 407.898438 293.644531 419.125 293.628906 421.488281 Z M 293.628906 421.488281 " fill-opacity="1" fill-rule="nonzero"/></g></svg>