<svg xmlns="http://www.w3.org/2000/svg" xmlns:xlink="http://www.w3.org/1999/xlink" width="700" zoomAndPan="magnify" viewBox="0 0 525 525.000007" height="700" preserveAspectRatio="xMidYMid meet" version="1.0"><defs><clipPath id="id1"><path d="M 70 60.863281 L 441 60.863281 L 441 155 L 70 155 Z M 70 60.863281 " clip-rule="nonzero"/></clipPath><clipPath id="id2"><path d="M 411 275 L 458.902344 275 L 458.902344 323 L 411 323 Z M 411 275 " clip-rule="nonzero"/></clipPath><clipPath id="id3"><path d="M 99 191 L 407 191 L 407 462.847656 L 99 462.847656 Z M 99 191 " clip-rule="nonzero"/></clipPath></defs><path fill="#b40c26" d="M 353.226562 217.921875 L 347.304688 216.632812 C 284.144531 201.808594 220.058594 200.503906 158.871094 217.742188 C 155.878906 218.585938 152.898438 216.316406 152.898438 213.207031 L 152.898438 137.3125 C 152.898438 135.453125 153.992188 133.765625 155.695312 133.007812 C 219.992188 104.46875 287.28125 108.058594 354.851562 132.894531 C 356.703125 133.578125 357.9375 135.34375 357.9375 137.320312 L 357.9375 213.214844 C 357.9375 215.808594 355.832031 217.921875 353.230469 217.921875 Z M 353.226562 217.921875 " fill-opacity="1" fill-rule="evenodd"/><g clip-path="url(#id1)"><path fill="#b40c26" d="M 157.613281 154.023438 L 73.335938 126.6875 C 69.027344 125.277344 69.027344 119.140625 73.347656 117.734375 L 247.308594 61.167969 C 248.226562 60.871094 249.222656 60.859375 250.148438 61.144531 L 437.425781 118.621094 C 441.847656 119.980469 441.847656 126.277344 437.417969 127.628906 L 354.609375 152.867188 C 352.796875 153.421875 177.261719 154.027344 157.617188 154.027344 Z M 157.613281 154.023438 " fill-opacity="1" fill-rule="evenodd"/></g><path fill="#b40c26" d="M 435 289.945312 C 430.234375 289.945312 426.363281 286.074219 426.363281 281.308594 L 426.363281 126.839844 C 426.363281 115.46875 443.636719 115.46875 443.636719 126.839844 L 443.636719 281.304688 C 443.636719 286.070312 439.765625 289.941406 435 289.941406 Z M 435 289.945312 " fill-opacity="1" fill-rule="evenodd"/><g clip-path="url(#id2)"><path fill="#b40c26" d="M 435.003906 322.609375 C 421.914062 322.609375 411.261719 311.960938 411.261719 298.875 C 411.261719 285.785156 421.914062 275.136719 435.003906 275.136719 C 448.09375 275.136719 458.742188 285.785156 458.742188 298.875 C 458.742188 311.960938 448.09375 322.609375 435.003906 322.609375 Z M 435.003906 322.609375 " fill-opacity="1" fill-rule="evenodd"/></g><g clip-path="url(#id3)"><path fill="#b40c26" d="M 252.875 462.839844 C 213.5625 462.839844 177.660156 447.980469 150.46875 423.597656 L 173.140625 400.933594 C 218.890625 440.800781 286.859375 440.792969 332.609375 400.933594 L 355.277344 423.601562 C 328.089844 447.984375 292.1875 462.839844 252.871094 462.839844 Z M 339.472656 394.464844 C 393.148438 339.894531 383.570312 250.28125 319.761719 208.007812 L 349.519531 212.277344 L 354.175781 194.890625 C 354.992188 195.058594 355.765625 195.441406 356.40625 196.023438 C 420.925781 254.996094 423.09375 355.304688 362.101562 417.09375 Z M 143.648438 417.09375 C 80.847656 353.460938 85.152344 249.285156 154.59375 191.433594 C 154.75 191.304688 154.90625 191.191406 155.070312 191.085938 C 154.578125 198.425781 154.085938 209.453125 155.558594 209.453125 L 183.847656 209.453125 C 121.808594 252.410156 113.324219 340.628906 166.28125 394.464844 L 143.648438 417.089844 Z M 143.648438 417.09375 " fill-opacity="1" fill-rule="evenodd"/></g><path fill="#b40c26" d="M 252.875 434.746094 C 250.011719 434.746094 247.175781 434.640625 244.363281 434.429688 L 244.363281 374.546875 C 244.363281 345.332031 220.578125 321.542969 191.351562 321.542969 L 128.109375 321.542969 C 125.398438 296.378906 131.132812 271.738281 143.671875 250.925781 C 171.363281 258.023438 221.410156 265.328125 252.878906 265.328125 C 284.339844 265.328125 334.378906 258.027344 362.066406 250.933594 C 374.628906 271.769531 380.347656 296.363281 377.648438 321.539062 L 314.402344 321.539062 C 285.171875 321.539062 261.386719 345.320312 261.386719 374.542969 L 261.386719 434.429688 C 258.578125 434.640625 255.738281 434.746094 252.878906 434.746094 Z M 252.875 331.503906 C 237.816406 331.503906 225.566406 319.257812 225.566406 304.203125 C 225.566406 289.148438 237.820312 276.898438 252.875 276.898438 C 267.929688 276.898438 280.179688 289.148438 280.179688 304.203125 C 280.179688 319.257812 267.933594 331.503906 252.875 331.503906 Z M 252.875 286.324219 C 229.335938 286.324219 229.335938 322.082031 252.875 322.082031 C 276.410156 322.082031 276.414062 286.324219 252.875 286.324219 Z M 252.875 286.324219 " fill-opacity="1" fill-rule="evenodd"/></svg>