<svg xmlns="http://www.w3.org/2000/svg" xmlns:xlink="http://www.w3.org/1999/xlink" width="700" zoomAndPan="magnify" viewBox="0 0 525 525.000007" height="700" preserveAspectRatio="xMidYMid meet" version="1.0"><defs><clipPath id="id1"><path d="M 0.5 0 L 524.5 0 L 524.5 524 L 0.5 524 Z M 0.5 0 " clip-rule="nonzero"/></clipPath><clipPath id="id2"><path d="M 68 66.769531 L 416 66.769531 L 416 455.28125 L 68 455.28125 Z M 68 66.769531 " clip-rule="nonzero"/></clipPath></defs><g clip-path="url(#id1)"><path fill="#ffffff" d="M 0.5 0 L 524.5 0 L 524.5 531.488281 L 0.5 531.488281 Z M 0.5 0 " fill-opacity="1" fill-rule="nonzero"/><path fill="#ffffff" d="M 0.5 0 L 524.5 0 L 524.5 524 L 0.5 524 Z M 0.5 0 " fill-opacity="1" fill-rule="nonzero"/><path fill="#ffffff" d="M 0.5 0 L 524.5 0 L 524.5 524 L 0.5 524 Z M 0.5 0 " fill-opacity="1" fill-rule="nonzero"/></g><path fill="#b40c26" d="M 152.550781 294.894531 C 152.550781 238.035156 198.785156 191.773438 255.621094 191.773438 C 312.453125 191.773438 358.695312 238.035156 358.695312 294.894531 C 353.050781 431.660156 158.207031 431.703125 152.550781 294.894531 Z M 127.917969 294.894531 C 127.917969 365.347656 185.203125 422.660156 255.621094 422.660156 C 326.039062 422.660156 383.324219 365.347656 383.324219 294.898438 C 376.589844 125.570312 134.765625 125.308594 127.917969 294.894531 " fill-opacity="1" fill-rule="nonzero"/><path fill="#b40c26" d="M 266.382812 145.980469 L 266.382812 99.652344 L 244.859375 99.652344 L 244.859375 145.980469 C 252.007812 145.464844 259.226562 145.464844 266.382812 145.980469 " fill-opacity="1" fill-rule="nonzero"/><path fill="#b40c26" d="M 290.234375 305.660156 L 244.859375 305.660156 L 244.859375 260.265625 L 266.382812 260.265625 L 266.382812 284.128906 L 290.234375 284.128906 Z M 336.453125 284.128906 C 331.640625 247.730469 302.753906 218.839844 266.382812 214.019531 L 266.382812 239.625 L 244.859375 239.625 L 244.859375 214.019531 C 208.484375 218.839844 179.597656 247.730469 174.78125 284.128906 L 201.8125 284.128906 L 201.8125 305.660156 L 174.78125 305.660156 C 179.597656 342.058594 208.484375 370.957031 244.859375 375.769531 L 244.859375 347.292969 L 266.382812 347.292969 L 266.382812 375.769531 C 302.753906 370.957031 331.640625 342.058594 336.453125 305.660156 L 309.425781 305.660156 L 309.425781 284.128906 L 336.453125 284.128906 " fill-opacity="1" fill-rule="nonzero"/><g clip-path="url(#id2)"><path fill="#b40c26" d="M 255.621094 444.195312 C 135.238281 444.796875 63.945312 305.714844 133.960938 208.5 L 109.960938 184.480469 L 94.738281 199.714844 L 79.519531 184.488281 L 125.175781 138.800781 L 140.394531 154.027344 L 125.175781 169.261719 L 147.714844 191.808594 C 168.039062 170.464844 194.230469 155.546875 223.335938 149.113281 L 223.335938 99.386719 L 201.867188 99.386719 L 201.867188 77.855469 L 309.476562 77.855469 L 309.476562 99.386719 L 287.902344 99.386719 L 287.902344 149.113281 C 460.664062 192.042969 433.394531 439.714844 255.621094 444.195312 Z M 298.886719 140.707031 L 298.886719 110.375 L 309.476562 110.375 C 315.542969 110.375 320.464844 105.460938 320.464844 99.386719 L 320.464844 77.855469 C 320.464844 71.78125 315.542969 66.867188 309.476562 66.867188 L 201.867188 66.867188 C 195.796875 66.867188 190.882812 71.78125 190.882812 77.855469 L 190.882812 99.386719 C 190.882812 105.460938 195.796875 110.375 201.867188 110.375 L 212.347656 110.375 L 212.347656 140.539062 C 188.269531 147.265625 166.257812 159.488281 147.796875 176.34375 L 140.710938 169.261719 L 148.164062 161.808594 C 150.222656 159.746094 151.378906 156.945312 151.378906 154.035156 C 151.378906 151.117188 150.222656 148.324219 148.164062 146.265625 L 132.945312 131.039062 C 130.796875 128.894531 127.984375 127.820312 125.175781 127.820312 C 122.363281 127.820312 119.554688 128.894531 117.410156 131.039062 L 71.75 176.71875 C 67.460938 181.003906 67.460938 187.96875 71.75 192.257812 L 86.96875 207.484375 C 89.027344 209.546875 91.820312 210.707031 94.738281 210.707031 C 97.652344 210.707031 100.445312 209.546875 102.507812 207.484375 L 109.960938 200.03125 L 119.785156 209.859375 C 89.921875 257.007812 87.3125 316.628906 113.4375 367.679688 C 141.050781 421.652344 195.234375 455.179688 254.839844 455.183594 L 255.898438 455.183594 C 354.660156 452.695312 406.539062 381.597656 414.132812 312.242188 C 421.5 244.957031 388.5 167.03125 298.886719 140.707031 " fill-opacity="1" fill-rule="nonzero"/></g></svg>